<?xml version="1.0" encoding="utf-8"?>
<!-- Generator: Adobe Illustrator 19.2.1, SVG Export Plug-In . SVG Version: 6.00 Build 0)  -->
<svg version="1.1" id="Layer_1" xmlns="http://www.w3.org/2000/svg" xmlns:xlink="http://www.w3.org/1999/xlink" x="0px" y="0px"
	 viewBox="0 0 1237.1 602.2" style="enable-background:new 0 0 1237.1 602.2;" xml:space="preserve">
<style type="text/css">
	.st0{fill:none;stroke:#2B48FF;stroke-width:3;stroke-miterlimit:10;}
	.st1{fill:#2B48FF;stroke:#2B48FF;stroke-width:3;stroke-miterlimit:10;}
</style>
<title>background</title>
<path class="st0" d="M1236.3,601.1c0,0-93.2-77.5-174-85.3c-40.8-3.9-191.8,27.8-229.5,15.9c-42.9-13.6-97.5-97.3-133.2-119
	c-39.8-24.2-162-1.3-207.4-19.7c-36.1-14.7-68.5-98.1-100.7-116.8c-39.2-22.8-160.9-11.9-200.9-34c-31.1-17.2-34.7-124.3-56.3-147.9
	C110.6,68.4,1,1.3,1,1.3"/>
<circle class="st1" cx="1066.4" cy="516.9" r="12.6"/>
<circle class="st1" cx="837.1" cy="530.3" r="17"/>
<circle class="st1" cx="695.9" cy="412.5" r="14.7"/>
<circle class="st1" cx="485.3" cy="388" r="9.8"/>
<circle class="st1" cx="386" cy="276.2" r="19.1"/>
<circle class="st1" cx="180.6" cy="233.9" r="8.2"/>
<circle class="st1" cx="131.2" cy="91.2" r="14.7"/>
</svg>
