<?xml version="1.0" encoding="utf-8"?>
<!-- Generator: Adobe Illustrator 19.2.1, SVG Export Plug-In . SVG Version: 6.00 Build 0)  -->
<svg version="1.1" id="Layer_1" xmlns="http://www.w3.org/2000/svg" xmlns:xlink="http://www.w3.org/1999/xlink" x="0px" y="0px"
	 viewBox="0 0 512 512" style="enable-background:new 0 0 512 512;" xml:space="preserve">
<style type="text/css">
	.st0{display:none;fill:#FFE32B;}
	.st1{opacity:0.6;fill:#2B48FF;}
	.st2{fill:#2B48FF;}
</style>
<circle class="st0" cx="256" cy="256" r="256"/>
<path class="st1" d="M256,276.6c-24.8,0-47.4-9.7-64.1-25.5l64,140.3l64.2-140.3C303.4,266.9,280.8,276.6,256,276.6z"/>
<path class="st2" d="M235.7,385.1l-51.8-128.5c-2.4-5.9-0.4-12.7,4.9-16.3c5.3-3.6,12.3-3.1,17.1,1.3c13.6,12.8,31.5,20,50.2,20
	s36.6-7.1,50.2-20c4.6-4.4,11.8-4.9,17.1-1.3c5.3,3.6,7.3,10.4,4.9,16.3l-51.8,128.5C276.5,385.1,237.7,390.3,235.7,385.1z
	 M224.2,283.6l31.8,79l31.8-79c-10.2,3.4-20.9,5.2-31.8,5.2C245,288.8,234.3,287,224.2,283.6z"/>
<path class="st2" d="M169.9,385.1c-6.8,0-12.6-5-13.6-11.9c-2.5-19.2-11.3-27.8-25.9-41.9c-1.1-1-2.2-2.1-3.3-3.2
	c-24.3-23.8-57.8-56.4-57.8-133.9c0-49.8,19.8-95.2,55.8-127.7c34.3-31,80.9-48.2,130.9-48.2s96.6,17.2,130.9,48.3
	c7.8,7.1,14.9,14.9,21.3,23.1c3.5,4.7,7,9.7,9.9,14.7c1.5,2.5,3,5.1,4.4,7.7c2.8,5.2,5.3,10.6,7.5,16.1c1.7,4.1,3.2,8.4,4.5,12.5
	c5.4,17.1,8.2,35.1,8.2,53.6c0,32.4-5.7,59.4-17.5,82.6c-0.6,1.4-1.4,2.7-2.1,4.1c-2,3.8-4.4,7.5-6.8,11.1c-0.7,1.2-1.6,2.3-2.4,3.4
	c-3,4.2-6.2,8.3-9.8,12.4c-6.6,7.5-13.3,14.1-19.3,19.9c-5.4,5.3-14,5.1-19.3-0.3s-5.1-14,0.3-19.3c5.8-5.7,11.9-11.5,17.6-18.2
	c3.1-3.5,5.8-6.9,8.2-10.4c0.6-0.9,1.3-1.9,1.9-2.8c1.9-3,3.8-6,5.5-9.1c0.6-1,1.1-2.1,1.7-3.2c9.7-19.3,14.5-42.2,14.5-70.3
	c0-15.7-2.3-30.9-6.9-45.3c-1.1-3.5-2.4-7.1-3.8-10.5c-1.9-4.5-4-9.1-6.3-13.5c-1.2-2.1-2.4-4.4-3.6-6.4c-2.5-4.2-5.4-8.4-8.4-12.3
	c-5.3-7-11.2-13.5-17.8-19.4C339.3,60.3,299.3,45.6,256,45.6s-83.3,14.7-112.6,41.2c-30.2,27.3-46.8,65.5-46.8,107.4
	c0,66,26.4,91.7,49.7,114.5c1.1,1.1,2.2,2.1,3.2,3.2c15.5,15,30.3,29.2,34,57.9c1,7.5-4.3,14.3-11.8,15.3
	C171.1,385.1,170.6,385.1,169.9,385.1z"/>
<path class="st1" d="M232.3,488.9h47.4c4.8,0,9.4-1.8,12.7-4.9l16.3-15.1c2.5-2.3,4.3-5.4,4.9-8.6l15.5-73.5H182.9l15.5,73.5
	c0.7,3.2,2.4,6.3,4.9,8.6l16.3,15.1C222.9,487.1,227.5,488.9,232.3,488.9z"/>
<g>
	<path class="st2" d="M278,493.7h-44c-8.1,0-15.7-3.2-21.4-8.9l-15.1-15.1c-4.3-4.3-7.1-9.7-8.4-15.7l-14.4-74
		c-0.7-4,0.3-8.2,2.9-11.3c2.6-3.2,6.5-5,10.5-5h135.7c4.1,0,8,1.9,10.5,5s3.6,7.2,2.9,11.3l-14.4,73.9c-1.1,5.9-4.1,11.4-8.4,15.7
		l-15.1,15.1C293.8,490.5,286.2,493.7,278,493.7z M204.7,391.1l11.2,57.7c0.1,0.6,0.4,1.1,0.8,1.6l15.1,15.1
		c0.6,0.6,1.4,0.9,2.1,0.9h44c0.8,0,1.6-0.4,2.1-0.9l15.1-15.1c0.5-0.5,0.7-1,0.8-1.6l11.2-57.7H204.7L204.7,391.1z"/>
	<path class="st2" d="M349.7,390.9H162.3c-7.5,0-13.6-6.1-13.6-13.6s6.1-13.6,13.6-13.6h187.3c7.5,0,13.6,6.1,13.6,13.6
		S357.2,390.9,349.7,390.9z"/>
	<path class="st2" d="M332.4,442.2H179.6c-7.5,0-13.6-6.1-13.6-13.6s6.1-13.6,13.6-13.6h152.8c7.5,0,13.6,6.1,13.6,13.6
		C346.1,436.1,339.9,442.2,332.4,442.2z"/>
</g>
</svg>
