<?xml version="1.0" encoding="utf-8"?>
<!-- Generator: Adobe Illustrator 19.2.1, SVG Export Plug-In . SVG Version: 6.00 Build 0)  -->
<svg version="1.1" id="Layer_1" xmlns="http://www.w3.org/2000/svg" xmlns:xlink="http://www.w3.org/1999/xlink" x="0px" y="0px"
	 viewBox="0 0 512 512" style="enable-background:new 0 0 512 512;" xml:space="preserve">
<style type="text/css">
	.st0{opacity:0.6;fill:#2B48FF;}
	.st1{fill:#2B48FF;}
</style>
<path class="st0" d="M256,276.6c-24.8,0-47.4-9.7-64.1-25.5l64.1,159l64.1-159C303.4,266.9,280.8,276.6,256,276.6z"/>
<g>
	<path class="st1" d="M256,424.9c-6,0-11.4-3.6-13.6-9.2l-64.1-159c-2.6-6.4-0.4-13.7,5.3-17.6c5.7-3.9,13.3-3.3,18.4,1.4
		c14.7,13.8,33.9,21.5,54.1,21.5s39.4-7.6,54.1-21.5c5-4.7,12.7-5.3,18.4-1.4c5.7,3.9,7.9,11.2,5.3,17.6l-64.1,159
		C267.4,421.3,262,424.9,256,424.9z M221.7,285.7l34.3,85.1l34.3-85.1c-11,3.7-22.5,5.6-34.3,5.6S232.6,289.4,221.7,285.7z"/>
	<path class="st1" d="M163.3,395.1c-7.3,0-13.6-5.4-14.6-12.8c-2.7-20.7-12.2-29.9-27.9-45.1c-1.2-1.1-2.4-2.3-3.6-3.5
		C91,308.1,54.9,273,54.9,189.5C54.9,135.9,76.2,87,115,52c37-33.5,87.1-52,141-52s104,18.5,141,52c8.4,7.6,16.1,16,22.9,24.9
		c3.8,5.1,7.5,10.4,10.7,15.8c1.6,2.7,3.2,5.5,4.7,8.3c3,5.6,5.7,11.4,8.1,17.3c1.8,4.4,3.4,9,4.9,13.5c5.8,18.4,8.8,37.8,8.8,57.7
		c0,34.9-6.1,64-18.8,89c-0.7,1.5-1.5,2.9-2.3,4.4c-2.2,4.1-4.7,8.1-7.3,12c-0.8,1.3-1.7,2.5-2.6,3.7c-3.2,4.5-6.7,8.9-10.6,13.4
		c-7.1,8.1-14.3,15.2-20.8,21.4c-5.8,5.7-15.1,5.5-20.8-0.3c-5.7-5.8-5.5-15.1,0.3-20.8c6.3-6.1,12.8-12.4,19-19.6
		c3.3-3.8,6.2-7.4,8.8-11.2c0.7-1,1.4-2,2.1-3c2.1-3.2,4.1-6.5,5.9-9.8c0.6-1.1,1.2-2.3,1.8-3.5c10.5-20.8,15.6-45.5,15.6-75.7
		c0-16.9-2.5-33.3-7.4-48.8c-1.2-3.8-2.6-7.6-4.1-11.3c-2-4.9-4.3-9.8-6.8-14.5c-1.3-2.3-2.6-4.7-3.9-6.9c-2.7-4.5-5.8-9-9-13.2
		c-5.7-7.5-12.1-14.5-19.2-20.9C345.7,45.2,302.6,29.4,256,29.4s-89.7,15.8-121.3,44.4c-32.5,29.4-50.4,70.5-50.4,115.7
		c0,71.1,28.4,98.8,53.5,123.3c1.2,1.2,2.4,2.3,3.5,3.4c16.7,16.2,32.6,31.5,36.6,62.4c1.1,8.1-4.6,15.4-12.7,16.5
		C164.6,395.1,164,395.1,163.3,395.1z"/>
</g>
<path class="st0" d="M232.3,497.3h47.4c4.8,0,9.4-1.9,12.7-5.3l16.3-16.3c2.5-2.5,4.3-5.8,4.9-9.3l15.5-79.6H182.9l15.5,79.6
	c0.7,3.5,2.4,6.8,4.9,9.3l16.3,16.3C222.9,495.4,227.5,497.3,232.3,497.3z"/>
<g>
	<path class="st1" d="M279.7,512h-47.4c-8.7,0-16.9-3.4-23.1-9.6l-16.3-16.3c-4.6-4.6-7.7-10.5-9-16.9l-15.5-79.6
		c-0.8-4.3,0.3-8.8,3.1-12.2c2.8-3.4,7-5.4,11.3-5.4h146.2c4.4,0,8.6,2,11.3,5.4s3.9,7.8,3.1,12.2l-15.5,79.6
		c-1.2,6.4-4.4,12.3-9,16.9l-16.3,16.3C296.7,508.6,288.5,512,279.7,512z M200.7,401.5l12.1,62.1c0.1,0.6,0.4,1.2,0.9,1.7l16.3,16.3
		c0.6,0.6,1.5,1,2.3,1h47.4c0.9,0,1.7-0.4,2.3-1l16.3-16.3c0.5-0.5,0.8-1.1,0.9-1.7l12.1-62.1L200.7,401.5L200.7,401.5z"/>
	<path class="st1" d="M356.9,401.3H155.1c-8.1,0-14.7-6.6-14.7-14.7s6.6-14.7,14.7-14.7h201.7c8.1,0,14.7,6.6,14.7,14.7
		S365,401.3,356.9,401.3z"/>
	<path class="st1" d="M338.3,456.6H173.7c-8.1,0-14.7-6.6-14.7-14.7s6.6-14.7,14.7-14.7h164.6c8.1,0,14.7,6.6,14.7,14.7
		S346.4,456.6,338.3,456.6z"/>
</g>
</svg>
