<?xml version="1.0" encoding="utf-8"?>
<!-- Generator: Adobe Illustrator 19.2.1, SVG Export Plug-In . SVG Version: 6.00 Build 0)  -->
<svg version="1.1" id="Layer_1" xmlns="http://www.w3.org/2000/svg" xmlns:xlink="http://www.w3.org/1999/xlink" x="0px" y="0px"
	 viewBox="0 0 512 512" style="enable-background:new 0 0 512 512;" xml:space="preserve">
<style type="text/css">
	.st0{display:none;fill:#FFE32B;}
	.st1{opacity:0.6;fill:#2B48FF;enable-background:new    ;}
	.st2{fill:#2B48FF;}
</style>
<circle class="st0" cx="256" cy="256" r="256"/>
<path class="st1" d="M256,278.2c-26.7,0-51-10.4-69-27.5l68.9,151.1L325,250.7C307,267.7,282.7,278.2,256,278.2z"/>
<path class="st2" d="M234.1,395l-55.8-138.4c-2.6-6.4-0.4-13.7,5.3-17.6c5.7-3.9,13.2-3.3,18.4,1.4c14.6,13.8,33.9,21.5,54.1,21.5
	s39.4-7.6,54.1-21.5c5-4.7,12.7-5.3,18.4-1.4c5.7,3.9,7.9,11.2,5.3,17.6L278.1,395C278.1,395,236.3,400.6,234.1,395z M221.8,285.7
	l34.2,85.1l34.2-85.1c-11,3.7-22.5,5.6-34.2,5.6C244.2,291.3,232.6,289.4,221.8,285.7z"/>
<path class="st2" d="M163.3,395c-7.3,0-13.6-5.4-14.6-12.8c-2.7-20.7-12.2-29.9-27.9-45.1c-1.2-1.1-2.4-2.3-3.6-3.4
	C91,308,55,272.9,55,189.5C55,135.8,76.3,86.9,115,51.9C152,18.6,202.2,0,256,0s104,18.5,141,52c8.4,7.6,16,16,22.9,24.9
	c3.8,5.1,7.5,10.4,10.7,15.8c1.6,2.7,3.2,5.5,4.7,8.3c3,5.6,5.7,11.4,8.1,17.3c1.8,4.4,3.4,9,4.8,13.5c5.8,18.4,8.8,37.8,8.8,57.7
	c0,34.9-6.1,64-18.8,88.9c-0.6,1.5-1.5,2.9-2.3,4.4c-2.2,4.1-4.7,8.1-7.3,12c-0.8,1.3-1.7,2.5-2.6,3.7c-3.2,4.5-6.7,8.9-10.6,13.4
	c-7.1,8.1-14.3,15.2-20.8,21.4c-5.8,5.7-15.1,5.5-20.8-0.3c-5.7-5.8-5.5-15.1,0.3-20.8c6.2-6.1,12.8-12.4,19-19.6
	c3.3-3.8,6.2-7.4,8.8-11.2c0.6-1,1.4-2,2-3c2-3.2,4.1-6.5,5.9-9.8c0.6-1.1,1.2-2.3,1.8-3.4c10.4-20.8,15.6-45.4,15.6-75.7
	c0-16.9-2.5-33.3-7.4-48.8c-1.2-3.8-2.6-7.6-4.1-11.3c-2-4.8-4.3-9.8-6.8-14.5c-1.3-2.3-2.6-4.7-3.9-6.9c-2.7-4.5-5.8-9-9-13.2
	c-5.7-7.5-12.1-14.5-19.2-20.9c-31.3-28.5-74.4-44.4-121-44.4s-89.7,15.8-121.2,44.4c-32.5,29.4-50.4,70.5-50.4,115.6
	c0,71.1,28.4,98.7,53.5,123.3c1.2,1.2,2.4,2.3,3.4,3.4c16.7,16.2,32.6,31.4,36.6,62.3c1.1,8.1-4.6,15.4-12.7,16.5
	C164.6,395,164,395,163.3,395z"/>
<path class="st1" d="M230.5,506.8h51c5.2,0,10.1-1.9,13.7-5.3l17.6-16.3c2.7-2.5,4.6-5.8,5.3-9.3l16.7-79.1H177.3L194,476
	c0.8,3.4,2.6,6.8,5.3,9.3l17.6,16.3C220.4,504.8,225.3,506.8,230.5,506.8z"/>
<g>
	<path class="st2" d="M279.7,512h-47.4c-8.7,0-16.9-3.4-23-9.6L193,486.1c-4.6-4.6-7.6-10.4-9-16.9l-15.5-79.7
		c-0.8-4.3,0.3-8.8,3.1-12.2c2.8-3.4,7-5.4,11.3-5.4H329c4.4,0,8.6,2,11.3,5.4c2.7,3.3,3.9,7.8,3.1,12.2l-15.5,79.6
		c-1.2,6.4-4.4,12.3-9,16.9l-16.3,16.3C296.7,508.5,288.5,512,279.7,512z M200.8,401.5l12.1,62.1c0.1,0.6,0.4,1.2,0.9,1.7l16.3,16.3
		c0.6,0.6,1.5,1,2.3,1h47.4c0.9,0,1.7-0.4,2.3-1l16.3-16.3c0.5-0.5,0.8-1.1,0.9-1.7l12.1-62.1H200.8L200.8,401.5z"/>
	<path class="st2" d="M356.9,401.3H155.1c-8.1,0-14.6-6.6-14.6-14.6S147,372,155.1,372h201.7c8.1,0,14.6,6.6,14.6,14.6
		S365,401.3,356.9,401.3z"/>
	<path class="st2" d="M338.3,456.5H173.7c-8.1,0-14.6-6.6-14.6-14.6s6.6-14.6,14.6-14.6h164.5c8.1,0,14.6,6.6,14.6,14.6
		C353,449.9,346.3,456.5,338.3,456.5z"/>
</g>
</svg>
