<?xml version="1.0" encoding="utf-8"?>
<!-- Generator: Adobe Illustrator 19.2.1, SVG Export Plug-In . SVG Version: 6.00 Build 0)  -->
<svg version="1.1" id="Layer_1" xmlns="http://www.w3.org/2000/svg" xmlns:xlink="http://www.w3.org/1999/xlink" x="0px" y="0px"
	 viewBox="0 0 541.4 512" style="enable-background:new 0 0 541.4 512;" xml:space="preserve">
<style type="text/css">
	.st0{fill:#2B48FF;}
	.st1{opacity:0.6;fill:#2B48FF;enable-background:new    ;}
</style>
<path class="st0" d="M314.1,423.7c-6.8,0-12.9-4.6-14.4-11.5l-17.3-74.8l28.7-7.5l17.5,75.7c1.8,8-3.1,16-11.1,17.8
	C316.3,423.5,315.2,423.7,314.1,423.7z"/>
<path class="st0" d="M83.7,400.6c-4.2,0-8.4-1.8-11.4-5.3c-5.3-6.3-4.4-15.6,1.8-20.9l31-26c6.3-5.3,15.6-4.4,20.9,1.8
	c5.3,6.3,4.4,15.6-1.8,20.9l-31,26C90.5,399.4,87.1,400.6,83.7,400.6z"/>
<path class="st0" d="M154.7,338.8c-4.1,0-8.3-1.7-11.2-5.1c-5.4-6.2-4.7-15.6,1.4-20.9l36.3-31.7l21.8,20.3l-38.7,33.7
	C161.6,337.6,158.1,338.8,154.7,338.8z"/>
<path class="st0" d="M199.4,181.4L122,93.2l22.3-19.6l78.5,89.5L199.4,181.4z"/>
<path class="st0" d="M453.1,255.1h-33.3c-8.2,0-14.8-6.6-14.8-14.8s6.6-14.8,14.8-14.8h33.3V255.1z"/>
<circle class="st1" cx="269.4" cy="240.3" r="97.1"/>
<path class="st0" d="M269.4,352.2c-61.7,0-111.9-50.2-111.9-111.9s50.2-111.9,111.9-111.9s111.9,50.2,111.9,111.9
	S331.1,352.2,269.4,352.2z M269.4,158c-45.4,0-82.2,36.9-82.2,82.2s36.9,82.2,82.2,82.2s82.2-36.9,82.2-82.2S314.7,158,269.4,158z"
	/>
<circle class="st1" cx="108.4" cy="55.2" r="40.3"/>
<path class="st0" d="M108.4,110.4c-30.4,0-55.2-24.8-55.2-55.2S78,0,108.4,0s55.2,24.8,55.2,55.2S138.8,110.4,108.4,110.4z
	 M108.4,29.7c-14.1,0-25.5,11.4-25.5,25.5s11.4,25.5,25.5,25.5s25.5-11.4,25.5-25.5S122.5,29.7,108.4,29.7z"/>
<path class="st0" d="M323.9,512.1c-32.5,0-58.9-26.4-58.9-58.9s26.4-58.9,58.9-58.9s58.9,26.4,58.9,58.9S356.3,512.1,323.9,512.1z
	 M323.9,424c-16.1,0-29.2,13.1-29.2,29.2s13.1,29.2,29.2,29.2s29.2-13.1,29.2-29.2S340,424,323.9,424z"/>
<path class="st0" d="M413.2,140.9c-24.5,0-44.5-20-44.5-44.5s20-44.5,44.5-44.5s44.5,20,44.5,44.5S437.7,140.9,413.2,140.9z
	 M413.2,81.6c-8.2,0-14.8,6.6-14.8,14.8s6.6,14.8,14.8,14.8c8.2,0,14.8-6.6,14.8-14.8S421.4,81.6,413.2,81.6z"/>
<circle class="st1" cx="489.8" cy="240.3" r="36.7"/>
<path class="st0" d="M489.8,291.9c-28.4,0-51.6-23.1-51.6-51.6c0-28.4,23.1-51.6,51.6-51.6s51.6,23.1,51.6,51.6
	C541.4,268.7,518.3,291.9,489.8,291.9z M489.8,218.4c-12.1,0-21.9,9.8-21.9,21.9c0,12.1,9.8,21.9,21.9,21.9s21.9-9.8,21.9-21.9
	S501.9,218.4,489.8,218.4z"/>
<circle class="st1" cx="53.6" cy="414.2" r="40.3"/>
<path class="st0" d="M53.6,469.4c-30.4,0-55.2-24.8-55.2-55.2S23.2,359,53.6,359s55.2,24.8,55.2,55.2
	C108.8,444.7,84.1,469.4,53.6,469.4z M53.6,388.7c-14.1,0-25.5,11.4-25.5,25.5s11.4,25.5,25.5,25.5s25.5-11.4,25.5-25.5
	C79.1,400.2,67.7,388.7,53.6,388.7z"/>
<path class="st0" d="M320.1,160.2l61.1-53.2c6.2-5.4,15.6-4.7,20.9,1.4c5.4,6.2,4.7,15.6-1.4,20.9l-56.4,49.1L320.1,160.2z"/>
</svg>
