<?xml version="1.0" encoding="utf-8"?>
<!-- Generator: Adobe Illustrator 19.2.1, SVG Export Plug-In . SVG Version: 6.00 Build 0)  -->
<svg version="1.1" id="Layer_1" xmlns="http://www.w3.org/2000/svg" xmlns:xlink="http://www.w3.org/1999/xlink" x="0px" y="0px"
	 viewBox="0 0 512 512" style="enable-background:new 0 0 512 512;" xml:space="preserve">
<style type="text/css">
	.st0{opacity:0.6;fill:#FFFFFF;enable-background:new    ;}
	.st1{fill:#FFFFFF;}
</style>
<path class="st0" d="M186.2,88.2c-12-34.5-44.9-59.3-83.5-59.3c-48.9,0-88.5,39.6-88.5,88.5c0,36.2,21.7,67.2,52.8,81
	C86.7,145.1,131.1,103.8,186.2,88.2z"/>
<path class="st1" d="M66.9,212.4c-1.9,0-3.9-0.4-5.7-1.2C24,194.8,0,157.9,0,117.3C0,60.8,46,14.7,102.6,14.7
	c43.6,0,82.5,27.7,96.9,68.8c1.3,3.7,1,7.7-0.8,11.2s-4.9,6-8.7,7.1C139.6,116.1,98.5,154,80.1,203.2c-1.4,3.6-4.2,6.6-7.8,8.1
	C70.6,212,68.8,212.4,66.9,212.4z M102.6,43c-41,0-74.3,33.4-74.3,74.4c0,24.5,12.1,47.2,31.8,60.9C81.6,133,120,97.5,166.8,79.8
	C153.6,57.3,129.3,43,102.6,43z"/>
<path class="st0" d="M409.4,28.9c-38.7,0-71.5,24.8-83.5,59.3c55.1,15.6,99.4,56.9,119.3,110.1c31.1-13.7,52.8-44.8,52.8-81
	C497.9,68.5,458.3,28.9,409.4,28.9z"/>
<g>
	<path class="st1" d="M445.1,212.4c-1.9,0-3.7-0.4-5.5-1.1c-3.6-1.5-6.4-4.4-7.8-8.1C413.5,154,372.4,116.1,322,101.8
		c-3.7-1.1-6.9-3.6-8.7-7.1c-1.8-3.5-2.1-7.5-0.8-11.2c14.4-41.2,53.3-68.8,96.9-68.8c56.6,0,102.6,46,102.6,102.6
		c0,40.6-24,77.5-61.2,93.9C449,212,447,212.4,445.1,212.4z M345.2,79.7c46.8,17.7,85.3,53.2,106.7,98.5
		c19.7-13.7,31.8-36.4,31.8-60.9c0-41-33.4-74.3-74.4-74.3C382.7,43,358.4,57.3,345.2,79.7z"/>
	<path class="st1" d="M246,299.8c-3.7,0-7.5-0.9-11-2.6L178.6,269c-7-3.5-9.8-12-6.3-19s12-9.8,19-6.3l54.1,27l71.8-71.8
		c5.5-5.5,14.5-5.5,20,0s5.5,14.5,0,20l-73.6,73.6C258.7,297.3,252.4,299.8,246,299.8z"/>
	<path class="st1" d="M256,500.5C135,500.5,36.5,402,36.5,281S135,61.4,256,61.4c87.2,0,166.2,51.6,201.2,131.6
		c3.1,7.1-0.1,15.5-7.3,18.6c-7.2,3.1-15.5-0.1-18.6-7.3C400.8,134.7,332,89.7,256,89.7C150.5,89.7,64.7,175.5,64.7,281
		S150.5,472.2,256,472.2S447.3,386.4,447.3,281c0-7.8,6.3-14.1,14.1-14.1s14.1,6.3,14.1,14.1C475.5,402,377,500.5,256,500.5z"/>
	<path class="st1" d="M358.9,363.4c-2.3,0-4.6-0.6-6.7-1.7L224.1,292c-6.9-3.7-9.4-12.3-5.7-19.2c3.7-6.9,12.3-9.4,19.2-5.7
		l128.1,69.7c6.9,3.7,9.4,12.3,5.7,19.2C368.7,360.7,363.9,363.4,358.9,363.4z"/>
	<path class="st1" d="M256,140.3c-7.8,0-14.1-6.3-14.1-14.1V75.6c0-7.8,6.3-14.1,14.1-14.1c7.8,0,14.1,6.3,14.1,14.1v50.6
		C270.1,134,263.8,140.3,256,140.3z"/>
	<path class="st1" d="M256,500.5c-7.8,0-14.1-6.3-14.1-14.1v-50.6c0-7.8,6.3-14.1,14.1-14.1c7.8,0,14.1,6.3,14.1,14.1v50.6
		C270.1,494.2,263.8,500.5,256,500.5z"/>
	<path class="st1" d="M461.4,295.1h-50.6c-7.8,0-14.1-6.3-14.1-14.1s6.3-14.1,14.1-14.1h50.6c7.8,0,14.1,6.3,14.1,14.1
		S469.2,295.1,461.4,295.1z"/>
	<path class="st1" d="M101.2,295.1H50.6c-7.8,0-14.1-6.3-14.1-14.1s6.3-14.1,14.1-14.1h50.6c7.8,0,14.1,6.3,14.1,14.1
		S109,295.1,101.2,295.1z"/>
	<path class="st1" d="M301.4,89.7c-7.8,0-14.1-6.3-14.1-14.1V46.4c0-3.6-3-6.6-6.6-6.6h-49.5c-3.6,0-6.6,3-6.6,6.6v29.2
		c0,7.8-6.3,14.1-14.1,14.1s-14.1-6.3-14.1-14.1V46.4c0-19.2,15.6-34.9,34.9-34.9h49.5c19.2,0,34.9,15.6,34.9,34.9v29.2
		C315.6,83.4,309.3,89.7,301.4,89.7z"/>
</g>
</svg>
