<?xml version="1.0" encoding="utf-8"?>
<!-- Generator: Adobe Illustrator 19.2.1, SVG Export Plug-In . SVG Version: 6.00 Build 0)  -->
<svg version="1.1" id="Messenger_Mark" xmlns="http://www.w3.org/2000/svg" xmlns:xlink="http://www.w3.org/1999/xlink" x="0px"
	 y="0px" viewBox="0 0 1000 1000" style="enable-background:new 0 0 1000 1000;" xml:space="preserve">
<style type="text/css">
	.st0{fill:url(#SVGID_1_);}
	.st1{fill:none;stroke:#FFFFFF;stroke-width:10;stroke-miterlimit:10;}
	.st2{fill:#FFFFFF;stroke:#FFFFFF;stroke-width:3;stroke-miterlimit:10;}
</style>
<linearGradient id="SVGID_1_" gradientUnits="userSpaceOnUse" x1="500" y1="898.28" x2="500" y2="112.28" gradientTransform="matrix(1 0 0 -1 0 1005.28)">
	<stop  offset="0" style="stop-color:#2B8CFF"/>
	<stop  offset="0.1834" style="stop-color:#2B79FF"/>
	<stop  offset="0.5015" style="stop-color:#2B5EFF"/>
	<stop  offset="0.784" style="stop-color:#2B4EFF"/>
	<stop  offset="1" style="stop-color:#2B48FF"/>
</linearGradient>
<circle class="st0" cx="500" cy="500" r="393"/>
<path class="st1" d="M869.9,362.1c-31.4,1.8-38.1,1.4-69.2,6.4c-27.6,4.5-54.8,12.6-76.5,30.8c-21.4,17.9-35.9,42.4-50.5,65.8
	c-16,25.7-31.9,51.6-51.6,74.7c-18.5,21.8-40.4,41.2-69.2,46.9c-31.5,6.2-64.3,6.2-96.2,6.2c-32.9,0.1-65.7-0.4-98.6-0.8
	c-30.7-0.4-62.5-1-92.3,7.2c-27.2,7.5-50.2,22.4-69.8,42.5c-22.6,23.2-21.4,22.5-43.1,46.5"/>
<circle class="st2" cx="236.5" cy="609.9" r="40.7"/>
<circle class="st2" cx="586.4" cy="569.2" r="29"/>
<circle class="st2" cx="739.5" cy="386.1" r="43.7"/>
</svg>
