<?xml version="1.0" encoding="utf-8"?>
<!-- Generator: Adobe Illustrator 19.2.1, SVG Export Plug-In . SVG Version: 6.00 Build 0)  -->
<svg version="1.1" id="Layer_1" xmlns="http://www.w3.org/2000/svg" xmlns:xlink="http://www.w3.org/1999/xlink" x="0px" y="0px"
	 viewBox="0 0 512 512" style="enable-background:new 0 0 512 512;" xml:space="preserve">
<style type="text/css">
	.st0{opacity:0.6;fill:#2B48FF;enable-background:new    ;}
	.st1{fill:#2B48FF;}
</style>
<g>
	<path class="st0" d="M365.2,258.1L365.2,258.1c-0.2-21.6-17.8-39-39.3-39h-36.1v-54.7c0-15.3,12.4-27.6,27.6-27.6h13.2
		c19.5,0,35.4-15.8,35.4-35.4l0,0c0-19.5-15.8-35.4-35.4-35.4h-32.5c-48,0-87,38.9-87,87v66.1h-25.6c-21.7,0-39.3,17.6-39.3,39.3
		l0,0c0,21.7,17.6,39.3,39.3,39.3h25.6v149.8h78.7V297.8h36.1C347.7,297.8,365.4,279.9,365.2,258.1z"/>
	<path class="st1" d="M289.8,462h-78.7c-8,0-14.5-6.5-14.5-14.5V312.2h-11.1c-29.7,0-53.9-24.2-53.9-53.9s24.2-53.9,53.9-53.9h11.1
		V153c0-56,45.5-101.5,101.5-101.5h32.5c27.5,0,49.9,22.4,49.9,49.9s-22.4,49.9-49.9,49.9h-13.2c-7.2,0-13.1,5.9-13.1,13.1v40.2
		h21.5c29.4,0,53.6,23.9,53.9,53.3c0.1,14.5-5.4,28.1-15.6,38.4s-23.8,16-38.3,16h-21.5v135.3C304.2,455.5,297.8,462,289.8,462z
		 M225.7,433h49.6V297.7c0-8,6.5-14.5,14.5-14.5h36.1c6.7,0,12.9-2.6,17.6-7.4c4.7-4.7,7.2-11,7.2-17.7
		c-0.1-13.5-11.3-24.6-24.8-24.6h-36.1c-8,0-14.5-6.5-14.5-14.5v-54.7c0-23.2,18.9-42.2,42.2-42.2h13.2c11.5,0,20.8-9.4,20.8-20.8
		c0-11.5-9.4-20.8-20.8-20.8H298c-40,0-72.5,32.5-72.5,72.5v66c0,8-6.5,14.5-14.5,14.5h-25.6c-13.7,0-24.8,11.1-24.8,24.8
		c0,13.7,11.1,24.8,24.8,24.8h25.6c8,0,14.5,6.5,14.5,14.5L225.7,433L225.7,433z"/>
</g>
<path class="st1" d="M432.5,512h-37.8c-8,0-14.5-6.5-14.5-14.5s6.5-14.5,14.5-14.5h37.8c27.8,0,50.5-22.6,50.5-50.5v-353
	c0-27.8-22.6-50.5-50.5-50.5H214.4c-8,0-14.5-6.5-14.5-14.5S206.3,0,214.4,0h218.1C476.3,0,512,35.7,512,79.5v352.9
	C512,476.3,476.3,512,432.5,512z"/>
<path class="st1" d="M289.7,512H79.5C35.7,512,0,476.3,0,432.5v-353C0,35.7,35.7,0,79.5,0h32.7c8,0,14.5,6.5,14.5,14.5
	S120.2,29,112.2,29H79.5C51.7,29,29,51.7,29,79.5v352.9c0,27.8,22.6,50.5,50.5,50.5h210.2c8,0,14.5,6.5,14.5,14.5
	S297.7,512,289.7,512z"/>
</svg>
