<?xml version="1.0" encoding="utf-8"?>
<!-- Generator: Adobe Illustrator 19.2.1, SVG Export Plug-In . SVG Version: 6.00 Build 0)  -->
<svg version="1.1" id="Layer_1" xmlns="http://www.w3.org/2000/svg" xmlns:xlink="http://www.w3.org/1999/xlink" x="0px" y="0px"
	 viewBox="0 0 512 512" style="enable-background:new 0 0 512 512;" xml:space="preserve">
<style type="text/css">
	.st0{display:none;fill:#FFE32B;}
	.st1{opacity:0.6;fill:#2B48FF;enable-background:new    ;}
	.st2{fill:#2B48FF;}
</style>
<circle class="st0" cx="256" cy="256" r="256"/>
<path class="st1" d="M196.8,219.1v265.3c0,4.8,3.5,8.9,7.6,8.9h58.5c4.2,0,7.6-4,7.6-8.9V219.1c0-4.8-3.5-8.9-7.6-8.9h-58.5
	C200.3,210.3,196.8,214.2,196.8,219.1z"/>
<path class="st2" d="M439.8,511H376c-12.6,0-23-11.2-23-24.9V164.6h-25.2c-8.7,0-16.8-5.3-20.6-13.9c-3.9-8.6-3-18.6,2.4-26.2
	l80.1-113.7C394,4.6,400.6,1,407.8,1c7.2,0,13.9,3.6,18.3,9.8l80.1,113.9c5.4,7.6,6.2,17.6,2.4,26.2c-3.9,8.6-11.8,13.9-20.6,13.9
	H448c-8,0-14.7-7.2-14.7-15.9s6.5-15.9,14.7-15.9h27.2L407.8,37l-67.3,95.9h27.2c8,0,14.7,7.2,14.7,15.9v330.4h51.3V221.2
	c0-8.7,6.5-15.9,14.7-15.9c8.2,0,14.7,7.2,14.7,15.9v264.8C462.8,499.6,452.6,511,439.8,511z"/>
<g>
	<path class="st2" d="M262.9,511H199c-12.6,0-23-11.2-23-24.9V213.3c0-13.7,10.4-24.9,23-24.9h63.9c12.6,0,23,11.2,23,24.9v272.8
		C285.9,499.6,275.5,511,262.9,511z M205.3,479.1h51.3V220h-51.3V479.1L205.3,479.1z"/>
	<path class="st2" d="M87.8,511H24c-12.6,0-23-11.2-23-24.9V329.2c0-13.7,10.4-24.9,23-24.9h63.9c8,0,14.7,7.2,14.7,15.9
		c0,8.7-6.5,15.9-14.7,15.9H30.3v143.1h51.3v-82.4c0-8.7,6.5-15.9,14.7-15.9c8,0,14.7,7.2,14.7,15.9v89.4
		C110.8,499.6,100.5,511,87.8,511z"/>
</g>
</svg>
