<?xml version="1.0" encoding="utf-8"?>
<!-- Generator: Adobe Illustrator 19.2.1, SVG Export Plug-In . SVG Version: 6.00 Build 0)  -->
<svg version="1.1" id="Layer_1" xmlns="http://www.w3.org/2000/svg" xmlns:xlink="http://www.w3.org/1999/xlink" x="0px" y="0px"
	 viewBox="0 0 512 512" style="enable-background:new 0 0 512 512;" xml:space="preserve">
<style type="text/css">
	.st0{fill:#FFE32B;}
	.st1{display:none;fill:#FFE32B;}
	.st2{fill:#2B48FF;}
</style>
<circle class="st0" cx="256" cy="256" r="256"/>
<path class="st1" d="M190.4,213.2V487c0,5,3.8,9.1,8.4,9.1h64.1c4.6,0,8.4-4.1,8.4-9.1V213.2c0-5-3.8-9.1-8.4-9.1h-64.1
	C194.2,204.1,190.4,208.1,190.4,213.2z"/>
<path class="st2" d="M393.4,424.3h-46.1c-9.1,0-16.6-8.1-16.6-18v-232h-18.2c-6.3,0-12.1-3.8-14.9-10c-2.8-6.2-2.2-13.4,1.7-18.9
	l57.8-82.1c3.2-4.5,8-7.1,13.2-7.1c5.2,0,10,2.6,13.2,7.1l57.8,82.2c3.9,5.5,4.5,12.7,1.7,18.9c-2.8,6.2-8.5,10-14.9,10h-28.8
	c-5.8,0-10.6-5.2-10.6-11.5s4.7-11.5,10.6-11.5h19.6l-48.6-69.2l-48.6,69.2h19.6c5.8,0,10.6,5.2,10.6,11.5v238.5h37V215.1
	c0-6.3,4.7-11.5,10.6-11.5s10.6,5.2,10.6,11.5v191.1C410,416.1,402.6,424.3,393.4,424.3z"/>
<g>
	<path class="st2" d="M265.7,424.3h-46.1c-9.1,0-16.6-8.1-16.6-18V209.4c0-9.9,7.5-18,16.6-18h46.1c9.1,0,16.6,8.1,16.6,18v196.9
		C282.3,416.1,274.8,424.3,265.7,424.3z M224.1,401.3h37v-187h-37V401.3L224.1,401.3z"/>
	<path class="st2" d="M139.3,424.3h-46c-9.1,0-16.6-8.1-16.6-18V293.1c0-9.9,7.5-18,16.6-18h46.1c5.8,0,10.6,5.2,10.6,11.5
		s-4.7,11.5-10.6,11.5H97.8v103.3h37v-59.5c0-6.3,4.7-11.5,10.6-11.5c5.8,0,10.6,5.2,10.6,11.5v64.5
		C155.9,416.1,148.5,424.3,139.3,424.3z"/>
</g>
</svg>
