<?xml version="1.0" encoding="utf-8"?>
<!-- Generator: Adobe Illustrator 19.2.1, SVG Export Plug-In . SVG Version: 6.00 Build 0)  -->
<svg version="1.1" id="Layer_1" xmlns="http://www.w3.org/2000/svg" xmlns:xlink="http://www.w3.org/1999/xlink" x="0px" y="0px"
	 viewBox="0 0 512 512" style="enable-background:new 0 0 512 512;" xml:space="preserve">
<style type="text/css">
	.st0{opacity:0.6;fill:#2B48FF;enable-background:new    ;}
	.st1{fill:#2B48FF;}
</style>
<path class="st0" d="M190.4,213.2V487c0,5,3.8,9.1,8.4,9.1h64.1c4.6,0,8.4-4.1,8.4-9.1V213.2c0-5-3.8-9.1-8.4-9.1h-64.1
	C194.2,204.1,190.4,208.1,190.4,213.2z"/>
<path class="st1" d="M440.5,512h-64.1c-12.7,0-23.1-11.3-23.1-25.1V164.3H328c-8.8,0-16.8-5.3-20.7-13.9c-3.9-8.6-3-18.7,2.3-26.3
	L390,9.9c4.4-6.3,11.1-9.9,18.3-9.9c7.3,0,13.9,3.6,18.4,9.9l80.4,114.3c5.4,7.6,6.3,17.7,2.3,26.3c-3.9,8.6-11.8,13.9-20.7,13.9
	h-40c-8.1,0-14.7-7.2-14.7-16s6.6-16,14.7-16h27.2l-67.6-96.2l-67.6,96.2h27.2c8.1,0,14.7,7.2,14.7,16v331.7h51.5v-259
	c0-8.8,6.6-16,14.7-16s14.7,7.2,14.7,16v265.8C463.6,500.7,453.3,512,440.5,512z"/>
<g>
	<path class="st1" d="M262.9,512h-64.1c-12.7,0-23.1-11.3-23.1-25.1V213.2c0-13.8,10.4-25.1,23.1-25.1h64.1
		c12.7,0,23.1,11.3,23.1,25.1V487C286,500.7,275.6,512,262.9,512z M205.1,480.1h51.5V220h-51.5V480.1L205.1,480.1z"/>
	<path class="st1" d="M87.1,512h-64C10.4,512,0,500.7,0,486.9V329.6c0-13.8,10.4-25.1,23.1-25.1h64.1c8.1,0,14.7,7.2,14.7,16
		s-6.6,16-14.7,16H29.4v143.6h51.5v-82.8c0-8.8,6.6-16,14.7-16s14.7,7.2,14.7,16V487C110.2,500.7,99.9,512,87.1,512z"/>
</g>
</svg>
