<?xml version="1.0" encoding="utf-8"?>
<!-- Generator: Adobe Illustrator 19.2.1, SVG Export Plug-In . SVG Version: 6.00 Build 0)  -->
<svg version="1.1" id="Layer_1" xmlns="http://www.w3.org/2000/svg" xmlns:xlink="http://www.w3.org/1999/xlink" x="0px" y="0px"
	 viewBox="0 0 512 512" style="enable-background:new 0 0 512 512;" xml:space="preserve">
<style type="text/css">
	.st0{opacity:0.6;fill:#2B48FF;}
	.st1{fill:#2B48FF;}
</style>
<path class="st0" d="M286.5,207.8c-18.2,0-26.4,10.2-29.6,16.2c-0.4,0.8-1.5,0.8-1.9,0c-3.2-6-11.3-16.2-29.5-16.2
	c-20.7,0-39,14.2-39,40c0,10.5,2.1,19.4,8.1,29.4c12.1,20.4,51.8,46.8,59.9,52c0.9,0.6,2,0.6,2.9,0c8.2-5.2,47.9-31.5,60.1-52
	c5.9-10,8-19,8-29.4C325.5,222,307.2,207.8,286.5,207.8z"/>
<g>
	<path class="st1" d="M256,343.8L256,343.8c-3.2,0-6.4-0.9-9.1-2.7c-8.3-5.3-50.4-32.9-64.5-56.7c-6.9-11.7-10-23-10-36.6
		c0-31.4,22.3-54.2,53.1-54.2c13.9,0,23.7,4.6,30.5,9.9c6.8-5.4,16.6-9.9,30.5-9.9c30.8,0,53.2,22.8,53.2,54.2
		c0,13.6-3.1,24.9-10,36.6c-14.2,24-56.3,51.5-64.6,56.8C262.3,342.9,259.2,343.8,256,343.8z M225.5,221.9
		c-11.5,0-24.8,6.8-24.8,25.9c0,8.5,1.8,14.9,6.1,22.2c7.4,12.6,31.6,31.3,49.3,43.3c17.7-11.9,41.8-30.6,49.3-43.3
		c4.3-7.3,6.1-13.7,6.1-22.2c0-19.1-13.4-25.9-24.9-25.9c-8.3,0-14,2.9-17.1,8.7c-2.7,5-7.8,8-13.4,8c-5.6,0-10.8-3.1-13.4-8.1
		C239.4,224.9,233.7,221.9,225.5,221.9z"/>
	<path class="st1" d="M130.7,485c-8.1,0-19.7-3.7-44.4-31.4C74.1,440,64.1,426.5,63.7,426c-0.4-0.5-0.7-1-1-1.6
		c-4.8-8.7-7.3-18.5-7.3-28.4v-67.7c0-7.8,6.3-14.2,14.2-14.2h86.5c13.3,0,25.8,5.1,35.3,14.5l44.3,43.6
		c14.2,14.2,14.2,37.2,0.1,51.3c-14.2,14.2-37.2,14.2-51.3,0.1L141,380.3c-2.2,0-5.3,0-9.7-0.1c-7.8,0-14.1-6.4-14.1-14.2
		c0-7.8,6.4-14.1,14.2-14.1c0,0,0.1,0,0.1,0c5.3,0,9.3,0.1,11.8,0.1c5.3,0.1,9.5,0.1,13.7,4.2l47.3,47.3c3.1,3.1,8.1,3.1,11.2,0
		c3.1-3.1,3.1-8.2,0.1-11.2l-44.2-43.5c-4.1-4.1-9.6-6.3-15.5-6.3H83.6V396c0,4.8,1.2,9.6,3.4,13.9c16.9,22.6,37.3,44,44.5,46.8
		l115,0c7.1,0,15.9-4,24.3-8c6.9-3.3,59.3-38.8,94.4-63c0.2-0.2,0.5-0.3,0.7-0.5c4.5-2.7,5.9-8.5,3.2-13c-1.3-2.2-3.4-3.7-5.8-4.3
		c-2.4-0.6-4.8-0.2-7,1l-64.1,42.5c-6.5,4.3-15.3,2.5-19.6-4c-4.3-6.5-2.5-15.3,4-19.6l64.4-42.7c0.2-0.1,0.3-0.2,0.5-0.3
		c8.6-5.2,18.8-6.7,28.6-4.3c9.8,2.4,18.1,8.5,23.3,17.2c10.7,17.7,5.1,40.7-12.5,51.6c-15.1,10.4-86.6,59.5-97.8,64.9
		c-11.3,5.5-23.5,10.8-36.6,10.8L130.7,485C130.7,485,130.7,485,130.7,485z"/>
</g>
<rect x="14.2" y="315.2" class="st0" width="73.1" height="141.2"/>
<g>
	<path class="st1" d="M87.3,470.6H14.2c-7.8,0-14.2-6.3-14.2-14.2V315.2c0-7.8,6.3-14.2,14.2-14.2h73.1c7.8,0,14.2,6.3,14.2,14.2
		v141.2C101.4,464.2,95.1,470.6,87.3,470.6z M28.3,442.3h44.8V329.4H28.3V442.3z"/>
	<path class="st1" d="M442.6,197.8h-86.5c-13.3,0-25.8-5.1-35.3-14.5l-44.3-43.6c-14.2-14.2-14.2-37.2-0.1-51.3
		c14.2-14.2,37.2-14.2,51.3-0.1l43.3,43.3c2.2,0,5.3,0,9.7,0.1c7.8,0,14.1,6.4,14.1,14.2c0,7.8-6.4,14.1-14.2,14.1c0,0,0,0-0.1,0
		c-5.3,0-9.3-0.1-11.8-0.1c-5.3-0.1-9.5-0.1-13.7-4.2l-47.3-47.3c-3.1-3.1-8.1-3.1-11.2,0c-3.1,3.1-3.1,8.2-0.1,11.2l44.2,43.5
		c4.1,4.1,9.6,6.3,15.5,6.3h72.3V116c0-4.8-1.2-9.6-3.4-13.9c-16.9-22.6-37.3-44-44.5-46.8l-115,0c-7.1,0-15.9,4-24.3,8
		c-6.9,3.3-59.3,38.8-94.4,63c-0.2,0.2-0.5,0.3-0.7,0.5c-4.5,2.7-5.9,8.5-3.2,13c1.3,2.2,3.4,3.7,5.8,4.3c2.4,0.6,4.8,0.2,7-1
		l64.1-42.5c6.5-4.3,15.3-2.5,19.6,4c4.3,6.5,2.5,15.3-4,19.6L171,166.9c-0.2,0.1-0.3,0.2-0.5,0.3c-8.6,5.2-18.8,6.7-28.6,4.3
		c-9.8-2.4-18.1-8.5-23.3-17.2c-10.7-17.7-5.1-40.7,12.5-51.6c15.1-10.4,86.6-59.5,97.8-64.9c11.3-5.5,23.5-10.8,36.6-10.8l115.8,0
		c0,0,0,0,0,0c8.1,0,19.7,3.7,44.4,31.4C437.9,72,447.9,85.5,448.4,86c0.4,0.5,0.7,1,1,1.6c4.8,8.7,7.3,18.5,7.3,28.4v67.7
		C456.7,191.5,450.4,197.8,442.6,197.8z"/>
</g>
<rect x="424.7" y="55.6" class="st0" width="73.1" height="141.2"/>
<path class="st1" d="M497.8,210.9h-73.1c-7.8,0-14.2-6.3-14.2-14.2V55.6c0-7.8,6.3-14.2,14.2-14.2h73.1c7.8,0,14.2,6.3,14.2,14.2
	v141.2C512,204.6,505.7,210.9,497.8,210.9z M438.9,182.6h44.8V69.7h-44.8V182.6z"/>
</svg>
