<?xml version="1.0" encoding="utf-8"?>
<!-- Generator: Adobe Illustrator 19.2.1, SVG Export Plug-In . SVG Version: 6.00 Build 0)  -->
<svg version="1.1" id="Layer_1" xmlns="http://www.w3.org/2000/svg" xmlns:xlink="http://www.w3.org/1999/xlink" x="0px" y="0px"
	 viewBox="0 0 512 512" style="enable-background:new 0 0 512 512;" xml:space="preserve">
<style type="text/css">
	.st0{fill:#FFE32B;}
	.st1{fill:#2B48FF;}
	.st2{display:none;fill:#FFE32B;}
</style>
<circle class="st0" cx="256" cy="256" r="256"/>
<path class="st0" d="M278.6,220.2c-13.5,0-19.6,7.6-22,12c-0.3,0.6-1.1,0.6-1.4,0c-2.4-4.5-8.4-12-21.9-12
	c-15.4,0-28.9,10.5-28.9,29.7c0,7.8,1.6,14.4,6,21.8c9,15.1,38.4,34.7,44.5,38.6c0.7,0.4,1.5,0.4,2.2,0c6.1-3.9,35.6-23.4,44.6-38.6
	c4.4-7.4,5.9-14.1,5.9-21.8C307.6,230.8,294,220.2,278.6,220.2z"/>
<g>
	<path class="st1" d="M256,321.2L256,321.2c-2.4,0-4.8-0.7-6.8-2c-6.2-3.9-37.4-24.4-47.9-42.1c-5.1-8.7-7.4-17.1-7.4-27.2
		c0-23.3,16.6-40.2,39.4-40.2c10.3,0,17.6,3.4,22.6,7.3c5-4,12.3-7.3,22.6-7.3c22.9,0,39.5,16.9,39.5,40.2c0,10.1-2.3,18.5-7.4,27.2
		c-10.5,17.8-41.8,38.2-47.9,42.2C260.7,320.5,258.4,321.2,256,321.2z M233.4,230.7c-8.5,0-18.4,5-18.4,19.2
		c0,6.3,1.3,11.1,4.5,16.5c5.5,9.4,23.5,23.2,36.6,32.1c13.1-8.8,31-22.7,36.6-32.1c3.2-5.4,4.5-10.2,4.5-16.5
		c0-14.2-9.9-19.2-18.5-19.2c-6.2,0-10.4,2.2-12.7,6.5c-2,3.7-5.8,5.9-9.9,5.9s-8-2.3-9.9-6C243.7,232.9,239.4,230.7,233.4,230.7z"
		/>
	<path class="st1" d="M163,426c-6,0-14.6-2.7-33-23.3c-9.1-10.1,0.1-6.8-7.6-16.6c0,0,2.6-3.5,2.4-3.9c-3.6-6.5-1.6-12.2-1.6-19.6
		l1.8-52c0-5.8-13.3-11.4-7.4-11.4h64.2c9.9,0,19.1,3.8,26.2,10.8l32.9,32.4c10.5,10.5,10.5,27.6,0.1,38.1
		c-10.5,10.5-27.6,10.5-38.1,0.1l-32.3-32.1c-1.6,0-3.9,0-7.2-0.1c-5.8,0-10.5-4.8-10.5-10.5c0-5.8,4.8-10.5,10.5-10.5h0.1
		c3.9,0,6.9,0.1,8.8,0.1c3.9,0.1,7.1,0.1,10.2,3.1l35.1,35.1c2.3,2.3,6,2.3,8.3,0s2.3-6.1,0.1-8.3l-32.8-32.3c-3-3-7.1-4.7-11.5-4.7
		H128v39.7c0,3.6,0.9,7.1,2.5,10.3c12.5,16.8,27.7,32.7,33,34.7h85.4c5.3,0,11.8-3,18-5.9c5.1-2.4,44-28.8,70.1-46.8
		c0.1-0.1,0.4-0.2,0.5-0.4c3.3-2,4.4-6.3,2.4-9.6c-1-1.6-2.5-2.7-4.3-3.2c-1.8-0.4-3.6-0.1-5.2,0.7l-47.6,31.5
		c-4.8,3.2-11.4,1.9-14.5-3c-3.2-4.8-1.9-11.4,3-14.5l47.8-31.7c0.1-0.1,0.2-0.1,0.4-0.2c6.4-3.9,14-5,21.2-3.2
		c7.3,1.8,13.4,6.3,17.3,12.8c7.9,13.1,3.8,30.2-9.3,38.3c-11.2,7.7-64.3,44.2-72.6,48.2c-8.4,4.1-17.4,8-27.2,8H163L163,426z"/>
</g>
<rect x="14.2" y="315.2" class="st2" width="73.1" height="141.2"/>
<g>
	<path class="st1" d="M130.8,415.3H76.5c-5.8,0-10.5-4.7-10.5-10.5V299.9c0-5.8,4.7-10.5,10.5-10.5h54.3c5.8,0,10.5,4.7,10.5,10.5
		v104.8C141.3,410.5,136.6,415.3,130.8,415.3z M87,394.3h33.2v-83.8H87V394.3z"/>
	<path class="st1" d="M394.5,212.8h-64.2c-9.9,0-19.1-3.8-26.2-10.8l-32.9-32.4c-10.5-10.5-10.5-27.6-0.1-38.1
		c10.5-10.5,27.6-10.5,38.1-0.1l32.1,32.1c1.6,0,3.9,0,7.2,0.1c5.8,0,10.5,4.7,10.5,10.5c0,5.8-4.7,10.5-10.5,10.5c0,0,0,0-0.1,0
		c-3.9,0-6.9-0.1-8.8-0.1c-3.9-0.1-7.1-0.1-10.2-3.1l-35.1-35.1c-2.3-2.3-6-2.3-8.3,0c-2.3,2.3-2.3,6.1-0.1,8.3l32.8,32.3
		c3,3,7.1,4.7,11.5,4.7H384v-39.6c0-3.6-0.9-7.1-2.5-10.3c-12.5-16.8-27.7-32.7-33-34.7h-85.4c-5.3,0-11.8,3-18,5.9
		c-5.1,2.4-44,28.8-70.1,46.8c-0.1,0.1-0.4,0.2-0.5,0.4c-3.3,2-4.4,6.3-2.4,9.6c1,1.6,2.5,2.7,4.3,3.2c1.8,0.4,3.6,0.1,5.2-0.7
		l47.6-31.5c4.8-3.2,11.4-1.9,14.5,3s1.9,11.4-3,14.5l-47.8,31.7c-0.1,0.1-0.2,0.1-0.4,0.2c-6.4,3.9-14,5-21.2,3.2
		s-13.4-6.3-17.3-12.8c-7.9-13.1-3.8-30.2,9.3-38.3c11.2-7.7,64.3-44.2,72.6-48.2c8.4-4.1,17.4-8,27.2-8H349l0,0
		c6,0,14.6,2.7,33,23.3c9.1,10.1-6.3,15.4,4.7,17.8c-9.1,3.7-2.1,11.2-1.9,11.7c3.6,6.5,5.5,5,5.5,12.4l-0.2,50.3
		C390.1,207.3,400.3,212.8,394.5,212.8z"/>
</g>
<rect x="424.7" y="55.6" class="st2" width="73.1" height="141.2"/>
<path class="st1" d="M435.5,222.5h-54.3c-5.8,0-10.5-4.7-10.5-10.5V107.3c0-5.8,4.7-10.5,10.5-10.5h54.3c5.8,0,10.5,4.7,10.5,10.5
	v104.8C446,217.9,441.3,222.5,435.5,222.5z M391.7,201.5H425v-83.8h-33.2V201.5z"/>
</svg>
