<?xml version="1.0" encoding="utf-8"?>
<!-- Generator: Adobe Illustrator 19.2.1, SVG Export Plug-In . SVG Version: 6.00 Build 0)  -->
<svg version="1.1" id="Layer_1" xmlns="http://www.w3.org/2000/svg" xmlns:xlink="http://www.w3.org/1999/xlink" x="0px" y="0px"
	 viewBox="0 0 512 512" style="enable-background:new 0 0 512 512;" xml:space="preserve">
<style type="text/css">
	.st0{display:none;fill:#FFE32B;}
	.st1{opacity:0.6;fill:#2B48FF;enable-background:new    ;}
	.st2{fill:#2B48FF;}
</style>
<circle class="st0" cx="256" cy="256" r="256"/>
<path class="st1" d="M286.5,207.7c-18.2,0-26.4,10.2-29.6,16.2c-0.4,0.8-1.5,0.8-1.9,0c-3.2-6.1-11.3-16.2-29.5-16.2
	c-20.7,0-38.9,14.1-38.9,40c0,10.5,2.2,19.4,8.1,29.4c12.1,20.3,51.7,46.8,60,52c0.9,0.5,2,0.5,3,0c8.2-5.3,48-31.5,60.1-52
	c5.9-10,7.9-19,7.9-29.4C325.5,222,307.2,207.7,286.5,207.7z"/>
<g>
	<path class="st2" d="M256,343.8L256,343.8c-3.2,0-6.5-0.9-9.2-2.7c-8.4-5.3-50.4-32.9-64.5-56.7c-6.9-11.7-10-23-10-36.6
		c0-31.4,22.4-54.2,53.1-54.2c13.9,0,23.7,4.6,30.5,9.8c6.7-5.4,16.6-9.8,30.5-9.8c30.9,0,53.2,22.8,53.2,54.2
		c0,13.6-3.1,24.9-10,36.6c-14.1,24-56.3,51.5-64.5,56.9C262.3,342.9,259.2,343.8,256,343.8z M225.5,221.9
		c-11.5,0-24.8,6.7-24.8,25.9c0,8.5,1.8,15,6.1,22.2c7.4,12.7,31.7,31.3,49.3,43.3c17.7-11.9,41.8-30.6,49.3-43.3
		c4.3-7.3,6.1-13.7,6.1-22.2c0-19.1-13.3-25.9-24.9-25.9c-8.4,0-14,3-17.1,8.8c-2.7,5-7.8,7.9-13.3,7.9c-5.5,0-10.8-3.1-13.3-8.1
		C239.4,224.9,233.6,221.9,225.5,221.9z"/>
	<path class="st2" d="M130.7,485c-8.1,0-19.7-3.6-44.5-31.4C74,440,86.4,444.5,76,431.3c0,0,3.5-4.7,3.2-5.3
		c-4.9-8.8-2.2-16.4-2.2-26.4l2.4-70.1c0-7.8-17.9-15.4-10-15.4H156c13.3,0,25.7,5.1,35.3,14.6l44.3,43.7
		c14.1,14.1,14.1,37.2,0.1,51.3c-14.1,14.1-37.2,14.1-51.3,0.1l-43.5-43.3c-2.2,0-5.3,0-9.7-0.1c-7.8,0-14.1-6.5-14.1-14.1
		c0-7.8,6.5-14.1,14.1-14.1h0.1c5.3,0,9.3,0.1,11.9,0.1c5.3,0.1,9.6,0.1,13.7,4.2l47.3,47.3c3.1,3.1,8.1,3.1,11.2,0
		c3.1-3.1,3.1-8.2,0.1-11.2l-44.2-43.5c-4-4-9.6-6.3-15.5-6.3H83.5v53.5c0,4.9,1.2,9.6,3.4,13.9c16.8,22.6,37.3,44.1,44.5,46.8
		h115.1c7.1,0,15.9-4,24.3-7.9c6.9-3.2,59.3-38.8,94.5-63.1c0.1-0.1,0.5-0.3,0.7-0.5c4.4-2.7,5.9-8.5,3.2-12.9
		c-1.3-2.2-3.4-3.6-5.8-4.3c-2.4-0.5-4.9-0.1-7,0.9l-64.1,42.4c-6.5,4.3-15.4,2.6-19.5-4c-4.3-6.5-2.6-15.4,4-19.5l64.4-42.7
		c0.1-0.1,0.3-0.1,0.5-0.3c8.6-5.3,18.9-6.7,28.6-4.3c9.8,2.4,18.1,8.5,23.3,17.2c10.6,17.7,5.1,40.7-12.5,51.6
		c-15.1,10.4-86.6,59.6-97.8,64.9c-11.3,5.5-23.4,10.8-36.6,10.8H130.7V485z"/>
</g>
<rect x="6.7" y="317.2" class="st1" width="75.5" height="145.8"/>
<g>
	<path class="st2" d="M87.3,470.6H14.1c-7.8,0-14.1-6.3-14.1-14.1V315.1c0-7.8,6.3-14.1,14.1-14.1h73.2c7.8,0,14.1,6.3,14.1,14.1
		v141.2C101.5,464.2,95.1,470.6,87.3,470.6z M28.3,442.3H73V329.4H28.3V442.3z"/>
	<path class="st2" d="M442.6,197.8h-86.5c-13.3,0-25.7-5.1-35.3-14.6l-44.3-43.7c-14.1-14.1-14.1-37.2-0.1-51.3
		c14.1-14.1,37.2-14.1,51.3-0.1l43.3,43.3c2.2,0,5.3,0,9.7,0.1c7.8,0,14.1,6.3,14.1,14.1s-6.3,14.1-14.1,14.1c0,0,0,0-0.1,0
		c-5.3,0-9.3-0.1-11.9-0.1c-5.3-0.1-9.6-0.1-13.7-4.2l-47.3-47.3c-3.1-3.1-8.1-3.1-11.2,0c-3.1,3.1-3.1,8.2-0.1,11.2l44.2,43.5
		c4,4,9.6,6.3,15.5,6.3h72.5v-53.4c0-4.9-1.2-9.6-3.4-13.9c-16.8-22.6-37.3-44.1-44.5-46.8H265.6c-7.1,0-15.9,4-24.3,7.9
		c-6.9,3.2-59.3,38.8-94.5,63.1c-0.1,0.1-0.5,0.3-0.7,0.5c-4.4,2.7-5.9,8.5-3.2,12.9c1.3,2.2,3.4,3.6,5.8,4.3c2.4,0.5,4.9,0.1,7-0.9
		l64.1-42.4c6.5-4.3,15.4-2.6,19.5,4s2.6,15.4-4,19.5L171,166.9c-0.1,0.1-0.3,0.1-0.5,0.3c-8.6,5.3-18.9,6.7-28.6,4.3
		c-9.7-2.4-18.1-8.5-23.3-17.2c-10.6-17.7-5.1-40.7,12.5-51.6c15.1-10.4,86.6-59.6,97.8-64.9c11.3-5.5,23.4-10.8,36.6-10.8h115.7
		l0,0c8.1,0,19.7,3.6,44.5,31.4c12.3,13.6-8.5,20.7,6.3,24c-12.3,5-2.8,15.1-2.6,15.8c4.9,8.8,7.4,6.7,7.4,16.7l-0.3,67.8
		C436.7,190.4,450.4,197.8,442.6,197.8z"/>
</g>
<rect x="430.5" y="49.2" class="st1" width="75.5" height="145.8"/>
<path class="st2" d="M497.9,210.8h-73.2c-7.8,0-14.1-6.3-14.1-14.1V55.6c0-7.8,6.3-14.1,14.1-14.1h73.2c7.8,0,14.1,6.3,14.1,14.1
	v141.2C512,204.6,505.7,210.8,497.9,210.8z M438.8,182.6h44.9V69.6H439L438.8,182.6L438.8,182.6z"/>
</svg>
