<?xml version="1.0" encoding="utf-8"?>
<!-- Generator: Adobe Illustrator 19.2.1, SVG Export Plug-In . SVG Version: 6.00 Build 0)  -->
<svg version="1.1" id="Layer_1" xmlns="http://www.w3.org/2000/svg" xmlns:xlink="http://www.w3.org/1999/xlink" x="0px" y="0px"
	 viewBox="0 0 512 512" style="enable-background:new 0 0 512 512;" xml:space="preserve">
<style type="text/css">
	.st0{fill:#FFFFFF;}
	.st1{opacity:0.6;fill:#FFFFFF;enable-background:new    ;}
</style>
<path class="st0" d="M424.2,456.2h-69.3c-18.7,0-33.9-15.2-33.9-33.9v-219c0-35.9-28.7-65.6-63.9-66.2c-17.5-0.3-34.1,6.4-46.6,18.7
	s-19.4,28.8-19.4,46.3v67.4c0,8-6.5,14.4-14.4,14.4s-14.4-6.5-14.4-14.4v-67.4c0-25.3,10-49,28-66.8c18.1-17.8,41.9-27.4,67.3-27
	c50.9,0.8,92.4,43.4,92.4,95v218.9c0,2.8,2.3,5.1,5.1,5.1h69.3c2.8,0,5.1-2.3,5.1-5.1v-58.5c0-8,6.5-14.4,14.4-14.4
	s14.4,6.5,14.4,14.4v58.5C458.1,441,442.9,456.2,424.2,456.2z M157.1,456.2H87.8c-18.7,0-33.9-15.2-33.9-33.9V202.1
	C53.9,90.7,144.6,0,256,0s202.1,90.7,202.1,202.1V269c0,8-6.5,14.4-14.4,14.4s-14.4-6.5-14.4-14.4v-66.9
	c0-95.5-77.7-173.2-173.2-173.2S82.8,106.6,82.8,202.1v220.1c0,2.8,2.3,5.1,5.1,5.1h69.3c2.8,0,5.1-2.3,5.1-5.1v-71.9
	c0-8,6.5-14.4,14.4-14.4s14.4,6.5,14.4,14.4v71.9C191,441,175.8,456.2,157.1,456.2z"/>
<path class="st1" d="M443.7,337.8v84.5c0,10.8-8.7,19.5-19.5,19.5h-69.3c-10.8,0-19.5-8.7-19.5-19.5v-84.5H443.7z"/>
<path class="st0" d="M424.2,456.2h-69.3c-18.7,0-33.9-15.2-33.9-33.9v-84.4c0-8,6.5-14.4,14.4-14.4h108.3c8,0,14.4,6.5,14.4,14.4
	v84.4C458.1,441,442.9,456.2,424.2,456.2z M349.8,352.2v70c0,2.8,2.3,5.1,5.1,5.1h69.3c2.8,0,5.1-2.3,5.1-5.1v-70H349.8z"/>
<path class="st1" d="M176.6,337.8v84.5c0,10.8-8.7,19.5-19.5,19.5H87.8c-10.8,0-19.5-8.7-19.5-19.5v-84.5H176.6z"/>
<g>
	<path class="st0" d="M157.1,456.2H87.8c-18.7,0-33.9-15.2-33.9-33.9v-84.4c0-8,6.5-14.4,14.4-14.4h108.3c8,0,14.4,6.5,14.4,14.4
		v84.4C191,441,175.8,456.2,157.1,456.2z M82.8,352.2v70c0,2.8,2.3,5.1,5.1,5.1h69.3c2.8,0,5.1-2.3,5.1-5.1v-70H82.8z"/>
	<path class="st0" d="M263.9,512c-1.4,0-2.8-0.2-4.2-0.6c-7.6-2.3-11.9-10.4-9.6-18l12.9-42.3l-31.8,7.6c-5.4,1.3-11.1-0.7-14.6-5
		c-3.5-4.4-4.1-10.4-1.7-15.4l28.9-58.7c3.5-7.2,12.2-10.1,19.3-6.6c7.2,3.5,10.1,12.2,6.6,19.3l-15.3,31.1l26.4-6.3
		c5-1.2,10.3,0.4,13.9,4.1s4.8,9.1,3.3,14.1l-20.2,66.4C275.9,508,270.1,512,263.9,512z"/>
</g>
</svg>
