<?xml version="1.0" encoding="utf-8"?>
<!-- Generator: Adobe Illustrator 19.2.1, SVG Export Plug-In . SVG Version: 6.00 Build 0)  -->
<svg version="1.1" id="Layer_1" xmlns="http://www.w3.org/2000/svg" xmlns:xlink="http://www.w3.org/1999/xlink" x="0px" y="0px"
	 viewBox="0 0 512 512" style="enable-background:new 0 0 512 512;" xml:space="preserve">
<style type="text/css">
	.st0{fill:#FFFFFF;}
	.st1{opacity:0.6;fill:#FFFFFF;enable-background:new    ;}
</style>
<path class="st0" d="M256,420.1c-0.4,0-0.7,0-1.1,0c-47.7-0.3-92.8-21.3-123.8-57.6C105.8,332.8,91.9,295,91.9,256
	c0-33.5,10-65.8,29-93.2c18.5-26.8,44.3-47.3,74.5-59.3c19.3-7.7,39.7-11.6,60.6-11.6c32.4,0,63.7,9.4,90.7,27.3
	c46,30.5,73.5,81.7,73.5,136.8c0,6.4-0.4,12.9-1.1,19.2c-4.2,36-20.6,70-46.1,95.9c-5.9,6-15.5,6-21.5,0.2c-6-5.9-6-15.5-0.2-21.5
	c20.8-21.1,34.1-48.9,37.6-78.1c0.6-5.2,0.9-10.5,0.9-15.7c0-44.9-22.4-86.6-59.9-111.5C308,130,282.4,122.3,256,122.3
	c-17.1,0-33.7,3.2-49.4,9.4c-51.2,20.4-84.4,69.2-84.4,124.3c0,31.8,11.3,62.6,32,86.8c25.3,29.7,62.2,46.8,101.1,47
	c0.2,0,0.4,0,0.6,0c8.3,0,15.2,6.8,15.2,15.2C271.1,413.3,264.4,420.1,256,420.1z"/>
<path class="st1" d="M322.6,179.6c-29.5,17.2-29.8,62.2-45,80.2c-15.3,18-78.7-26.5-76.8-54s-7-24-12.1-28.3
	c-3.2-2.7,14-37.7,12.3-58.4c17-6.8,35.6-12,55-12c30.4,0,58.7,10.6,82.3,26.3C339.6,151.9,337.3,171.1,322.6,179.6z"/>
<path class="st0" d="M267,279.2c-21.4,0-47.6-17.7-62.9-34.1c-9-9.7-19.6-24.6-18.5-40.3c0.5-6.6,0.1-10-0.2-11.7
	c-1.7-0.8-4.2-2-6.6-4c-9.1-7.7-5.9-17.7-1-32.8c3.5-10.7,8.7-26.8,8-36c-0.5-6.6,3.3-12.8,9.5-15.3c22.2-8.8,42-13.1,60.6-13.1
	c30.9,0,62.2,10,90.7,28.8c3.9,2.6,6.4,6.8,6.7,11.5c2.2,29.9-5.5,50.3-23.1,60.6c-13.2,7.7-19.1,25.3-24.8,42.3
	c-4.4,13.1-8.5,25.4-16.3,34.6C285.5,274,278.6,279.2,267,279.2z M205.4,169.9c8.8,7,11.8,18.1,10.5,37c-0.1,2.1,1.8,8.4,10.4,17.5
	c13.4,14.4,32.1,24.4,40.6,24.4c3.6-5.1,6.7-14.4,9.7-23.4c6.8-20.3,15.2-45.5,38.3-58.9c6.7-3.9,8.5-14.4,8.4-24.6
	c-21.6-12.9-44.8-19.7-67.4-19.7c-12.4,0-25.4,2.4-40.2,7.5c-1.4,12.4-5.7,25.5-9,35.9C206.4,166.9,205.9,168.4,205.4,169.9z"/>
<path class="st1" d="M256,405.4c-45.1-0.2-86.2-22.4-113.3-54.3c18.3-22.5,56.8-13.1,68.1-36.1C230,275.7,291.5,352.4,256,405.4z"/>
<path class="st0" d="M256,420.6L256,420.6c-47.3-0.2-92.8-21.9-124.9-59.6c-4.8-5.6-4.9-13.8-0.2-19.4
	c12.1-14.9,29.6-19.2,43.6-22.7c12.3-3.1,20-5.2,22.6-10.4c6-12.3,16.4-19.3,28.4-19.3c16.3,0,33.6,13.3,45,34.8
	c12.5,23.5,18.6,59.4-1.9,90C265.8,418,261.1,420.6,256,420.6z M165.6,353.1c22.9,21.2,52.1,34.4,81.7,36.7
	c8-17.8,3.8-37.8-3.6-51.7c-7.2-13.5-15.3-18.3-17.9-18.7c-0.3,0.3-0.9,1-1.5,2.3c-8.9,18.1-27.5,22.8-42.5,26.5
	C176.1,349.7,170.4,351.1,165.6,353.1z"/>
<path class="st1" d="M402.4,273.5c-3.9,33.8-17.5,64.1-40.1,87c-26-5.3-31.1-28.7-45.3-44.9c-33.2-38,27.3-46.5,61-46.5
	C387.3,269.1,394.5,270.7,402.4,273.5z"/>
<path class="st0" d="M362.3,375.7c-1,0-2-0.1-3.1-0.3c-24.6-5.1-35.4-22.3-44.1-36.1c-3.2-5-6.1-9.8-9.5-13.7
	c-16.2-18.6-14.8-33.1-10.7-42.1c11.7-25.8,57.1-29.7,83.2-29.7c10.3,0,19.2,1.6,29.5,5.3c6.6,2.4,10.8,9,10,16.1
	c-4.4,37.8-19.8,71-44.4,96C370.2,374.1,366.3,375.7,362.3,375.7z M322.6,296c0.1,0.6,0.7,3.7,5.9,9.6c5,5.7,8.7,11.7,12.4,17.5
	c6,9.6,10.4,16.1,16.9,19.8c13.6-16.1,22.9-36,27.4-58.2c-2.3-0.3-4.6-0.4-7.2-0.4C345.3,284.3,325.1,291.7,322.6,296z"/>
<circle class="st1" cx="85.7" cy="85.7" r="37.8"/>
<path class="st0" d="M85.7,138.7c-14.1,0-27.4-5.5-37.5-15.5c-20.7-20.7-20.7-54.3,0-74.9c10-10,23.3-15.5,37.5-15.5
	c14.1,0,27.4,5.5,37.5,15.5c20.7,20.7,20.7,54.3,0,74.9C113.2,133.2,99.9,138.7,85.7,138.7z M85.7,63.1c-6,0-11.7,2.4-16,6.6
	c-8.8,8.8-8.8,23.1,0,31.9c4.3,4.3,9.9,6.6,16,6.6c6,0,11.7-2.3,16-6.6c8.8-8.8,8.8-23.1,0-31.9C97.4,65.5,91.8,63.1,85.7,63.1z"/>
<circle class="st1" cx="426.3" cy="426.3" r="37.8"/>
<path class="st0" d="M426.3,479.2c-14.1,0-27.4-5.5-37.5-15.5c-20.7-20.7-20.7-54.3,0-74.9c10-10,23.3-15.5,37.5-15.5
	c14.1,0,27.4,5.5,37.5,15.5c20.7,20.7,20.7,54.3,0,74.9C453.7,473.7,440.4,479.2,426.3,479.2z M426.3,403.7c-6,0-11.7,2.4-16,6.6
	c-8.8,8.8-8.8,23.1,0,31.9c4.3,4.3,9.9,6.6,16,6.6c6,0,11.7-2.4,16-6.6c8.8-8.8,8.8-23.1,0-31.9C438,406,432.3,403.7,426.3,403.7z"
	/>
<circle class="st1" cx="426.3" cy="85.7" r="37.8"/>
<path class="st0" d="M426.3,138.7c-14.1,0-27.4-5.5-37.5-15.5c-20.7-20.7-20.7-54.3,0-74.9c10-10,23.3-15.5,37.5-15.5
	c14.1,0,27.4,5.5,37.5,15.5c20.7,20.7,20.7,54.3,0,74.9C453.7,133.2,440.4,138.7,426.3,138.7z M426.3,63.1c-6,0-11.7,2.4-16,6.6
	c-8.8,8.8-8.8,23.1,0,31.9c4.3,4.3,9.9,6.6,16,6.6c6,0,11.7-2.3,16-6.6c8.8-8.8,8.8-23.1,0-31.9C438,65.5,432.3,63.1,426.3,63.1z"/>
<circle class="st1" cx="85.7" cy="426.3" r="37.8"/>
<path class="st0" d="M85.7,479.2c-14.1,0-27.4-5.5-37.5-15.5c-20.7-20.7-20.7-54.3,0-74.9c10-10,23.3-15.5,37.5-15.5
	c14.1,0,27.4,5.5,37.5,15.5c20.7,20.7,20.7,54.3,0,74.9C113.2,473.7,99.9,479.2,85.7,479.2z M85.7,403.7c-6,0-11.7,2.4-16,6.6
	c-8.8,8.8-8.8,23.1,0,31.9c4.3,4.3,9.9,6.6,16,6.6c6,0,11.7-2.4,16-6.6c8.8-8.8,8.8-23.1,0-31.9C97.4,406,91.8,403.7,85.7,403.7z"/>
<path class="st0" d="M392.8,55.8c3.4-3.4,7.5-6.2,12-8.2C361.7,16.7,310.1,0,256,0c-54.5,0-106.4,16.9-149.7,48.3
	c8.2,6.2,13.9,15.4,16.2,25.8C161,45.7,207.3,30.4,256,30.4c46.2,0,90.4,13.8,127.6,39.5C385.8,64.5,389.1,59.6,392.8,55.8z"/>
<path class="st0" d="M60.5,395.2c3.3-3.3,7.4-6.1,11.8-8.1c-27.2-38-41.9-83.4-41.9-131c0-48.7,15.3-95.1,43.7-133.6
	c-10.6-2.1-19.5-8.2-25.5-16.6C17.1,149.2,0,201.3,0,256c0,56.2,18,109.5,51.2,153.6C53.4,404.1,56.7,399,60.5,395.2z"/>
<path class="st0" d="M386.7,439.9c-4.4,3.1-8.9,6.1-13.5,8.9c-35,21.3-75.2,32.8-117.2,32.8c-46.6,0-90.9-14-128.4-40
	c-2.2,4.7-5.1,9-8.4,12.3c-3.9,3.9-8.7,7-14,9.1c43.5,31.8,95.8,49,150.7,49c47.5,0,93-12.8,132.5-36.8c6.6-4,13-8.3,19.2-12.9
	C398.2,457.8,390.8,449.8,386.7,439.9z"/>
<path class="st0" d="M496.8,240.8c-8.4,0-15.2,6.8-15.2,15.2c0,43-12,84.2-34.3,119.7c-2.2,3.5-4.5,7-6.9,10.4
	c9.8,4.1,17.5,11.9,21.9,21.6c4.3-5.8,8.3-11.8,12.1-17.9C498.9,350,512,304,512,256C512,247.6,505.2,240.8,496.8,240.8z"/>
</svg>
