<?xml version="1.0" encoding="utf-8"?>
<!-- Generator: Adobe Illustrator 19.2.1, SVG Export Plug-In . SVG Version: 6.00 Build 0)  -->
<svg version="1.1" id="Messenger_Mark" xmlns="http://www.w3.org/2000/svg" xmlns:xlink="http://www.w3.org/1999/xlink" x="0px"
	 y="0px" viewBox="0 0 1000 1000" style="enable-background:new 0 0 1000 1000;" xml:space="preserve">
<style type="text/css">
	.st0{fill:url(#SVGID_1_);}
	.st1{display:none;fill:url(#Bubble_Shape_1_);}
	.st2{fill:#FFFFFF;}
</style>
<linearGradient id="SVGID_1_" gradientUnits="userSpaceOnUse" x1="336.6" y1="500" x2="663.4" y2="500">
	<stop  offset="0" style="stop-color:#2B48FF"/>
	<stop  offset="1" style="stop-color:#4DC1FF"/>
</linearGradient>
<circle class="st0" cx="500" cy="500" r="163.4"/>
<linearGradient id="Bubble_Shape_1_" gradientUnits="userSpaceOnUse" x1="500" y1="493" x2="500" y2="-301" gradientTransform="matrix(1 0 0 1 0 404)">
	<stop  offset="0.1137" style="stop-color:#006DFF"/>
	<stop  offset="0.9493" style="stop-color:#00C6FF"/>
</linearGradient>
<path id="Bubble_Shape" class="st1" d="M500,103c-217,0-393,164.5-393,367.5C107,586,163.9,689,253,756.4V897l134.1-74.4
	c35.8,10,73.6,15.4,112.9,15.4c217,0,393-164.5,393-367.5S717,103,500,103z M541.4,595.8L439.7,490.2L244,598.5l214.6-227.7
	l101.6,105.6L756,368.1L541.4,595.8z"/>
<path class="st2" d="M503.2,619h-6.5c-14.6,0-26.5-11.9-26.5-26.5v-185c0-14.6,11.9-26.5,26.5-26.5h6.5c14.6,0,26.5,11.9,26.5,26.5
	v94.1v90.9C529.8,607.1,517.8,619,503.2,619z"/>
<path class="st2" d="M381,503.2v-6.5c0-14.6,11.9-26.5,26.5-26.5h62.7H500h29.8h62.7c14.6,0,26.5,11.9,26.5,26.5v6.5
	c0,14.6-11.9,26.5-26.5,26.5h-62.7h-28.2h-31.3h-62.7C392.9,529.8,381,517.8,381,503.2z"/>
</svg>
