<?xml version="1.0" encoding="utf-8"?>
<!-- Generator: Adobe Illustrator 19.2.1, SVG Export Plug-In . SVG Version: 6.00 Build 0)  -->
<svg version="1.1" id="Layer_1" xmlns="http://www.w3.org/2000/svg" xmlns:xlink="http://www.w3.org/1999/xlink" x="0px" y="0px"
	 viewBox="0 0 1237.1 602.2" style="enable-background:new 0 0 1237.1 602.2;" xml:space="preserve">
<style type="text/css">
	.st0{display:none;}
	.st1{display:inline;fill:url(#SVGID_1_);}
	.st2{display:inline;fill:none;stroke:#FFFFFF;stroke-width:3;stroke-miterlimit:10;}
	.st3{display:inline;fill:#FFFFFF;stroke:#FFFFFF;stroke-width:3;stroke-miterlimit:10;}
	.st4{display:none;fill:url(#Bubble_Shape_1_);}
	.st5{font-family:'Quicksand-Bold';}
	.st6{font-size:215.3034px;}
</style>
<title>features-background</title>
<g class="st0">
	
		<linearGradient id="SVGID_1_" gradientUnits="userSpaceOnUse" x1="292.4158" y1="138.8089" x2="292.4158" y2="475.4714" gradientTransform="matrix(1 0 0 1 0 6)">
		<stop  offset="0" style="stop-color:#2B8CFF"/>
		<stop  offset="0.1224" style="stop-color:#2B75FF"/>
		<stop  offset="0.2734" style="stop-color:#2B61FF"/>
		<stop  offset="0.4452" style="stop-color:#2B53FF"/>
		<stop  offset="0.6536" style="stop-color:#2B4BFF"/>
		<stop  offset="1" style="stop-color:#2B48FF"/>
	</linearGradient>
	<circle class="st1" cx="292.4" cy="313.1" r="168.3"/>
	<path class="st2" d="M450.8,254.1c-13.5,0.8-16.3,0.6-29.7,2.7c-11.8,1.9-23.5,5.4-32.8,13.2c-9.2,7.7-15.4,18.1-21.6,28.2
		c-6.9,11-13.7,22.1-22.1,32c-7.9,9.3-17.3,17.7-29.6,20.1c-13.5,2.6-27.5,2.6-41.2,2.7c-14.1,0-28.2-0.2-42.2-0.4
		c-13.1-0.2-26.8-0.4-39.6,3.1c-11.6,3.2-21.5,9.6-29.9,18.2c-9.7,9.9-9.2,9.6-18.5,19.9"/>
	<circle class="st3" cx="181.1" cy="360.9" r="10.3"/>
	<circle class="st3" cx="328.6" cy="343.7" r="6.8"/>
	<circle class="st3" cx="398.2" cy="265.4" r="13.4"/>
</g>
<linearGradient id="Bubble_Shape_1_" gradientUnits="userSpaceOnUse" x1="967.7551" y1="481.8143" x2="967.7551" y2="144.466">
	<stop  offset="0.1137" style="stop-color:#006DFF"/>
	<stop  offset="0.9493" style="stop-color:#00C6FF"/>
</linearGradient>
<path id="Bubble_Shape" class="st4" d="M967.8,144.5c-92.2,0-167,69.9-167,156.1c0,49.1,24.2,92.8,62,121.5v59.8l57-31.6
	c15.2,4.3,31.3,6.5,48,6.5c92.2,0,167-69.9,167-156.1S1060,144.5,967.8,144.5z M985.3,353.8L942.2,309L859,355l91.2-96.8l43.2,44.9
	l83.2-46L985.3,353.8z"/>
<text transform="matrix(1 0 0 1 546.3843 393.715)" class="st5 st6">+</text>
</svg>
