<?xml version="1.0" encoding="utf-8"?>
<!-- Generator: Adobe Illustrator 19.2.1, SVG Export Plug-In . SVG Version: 6.00 Build 0)  -->
<svg version="1.1" id="Layer_1" xmlns="http://www.w3.org/2000/svg" xmlns:xlink="http://www.w3.org/1999/xlink" x="0px" y="0px"
	 viewBox="0 0 512 512" style="enable-background:new 0 0 512 512;" xml:space="preserve">
<style type="text/css">
	.st0{opacity:0.6;fill:#2B48FF;}
	.st1{display:none;fill:#FFE32B;}
	.st2{fill:#2B48FF;}
</style>
<circle class="st0" cx="260.9" cy="230" r="39.1"/>
<circle class="st1" cx="258.2" cy="258.2" r="253.8"/>
<path class="st2" d="M339.9,406.6h-42c-3.5,0-6.5-5.3-6.5-11.8c0-6.6,2.9-11.8,6.5-11.8h42c3.5,0,6.5,5.3,6.5,11.8
	C346.4,401.3,343.4,406.6,339.9,406.6z"/>
<path class="st2" d="M181.8,406.6c-5.9,0-11-4.4-11.8-10.3l-21.2-162.4C138.4,166,164.5,97.4,216.7,55.1
	c19.4-15.7,35-24.4,35.7-24.7c3.6-1.9,7.9-1.9,11.5,0.1c0.7,0.4,17.4,9.8,37.7,26.7c50.8,42.3,76,110.2,65.8,177.1
	c-1,6.5-7.1,10.9-13.5,9.9s-10.9-7.1-9.9-13.5c9.1-58.7-13-118.2-57.4-155.2c-11.7-9.7-22.2-16.8-28.4-20.7
	c-5.8,3.6-15.5,10.1-26.5,18.9c-45.8,37-68.5,97.2-59.3,156.8c0,0.1,0,0.2,0,0.3l21.2,162.5c0.8,6.5-3.7,12.4-10.2,13.4
	C182.9,406.6,182.3,406.6,181.8,406.6z"/>
<g>
	<path class="st2" d="M258.1,283.1c-28.4,0-51.5-23.1-51.5-51.5s23.1-51.5,51.5-51.5s51.5,23.1,51.5,51.5S286.5,283.1,258.1,283.1z
		 M258.1,203.9c-15.3,0-27.7,12.4-27.7,27.7s12.4,27.7,27.7,27.7s27.7-12.4,27.7-27.7S273.4,203.9,258.1,203.9z"/>
	<path class="st2" d="M258.1,148.5H175c-6.6,0-11.8-5.3-11.8-11.8c0-6.6,5.3-11.9,11.8-11.9h83.1c6.6,0,11.8,5.3,11.8,11.8
		C270,143.1,264.7,148.5,258.1,148.5z"/>
	<path class="st2" d="M340.2,148.5h-36.4c-6.6,0-11.8-5.3-11.8-11.8c0-6.6,5.3-11.8,11.8-11.8h36.4c6.6,0,11.8,5.3,11.8,11.8
		S346.8,148.5,340.2,148.5z"/>
</g>
<path class="st0" d="M185.4,391.3L172,288.9l-29.1,29.7c-13.1,13.5-20.5,31.5-20.5,50.3v63.4l63.1-41.1H185.4L185.4,391.3z"/>
<path class="st2" d="M118.2,448.2c-1.9,0-3.9-0.5-5.6-1.4c-3.9-2.1-6.2-6-6.2-10.4v-64.2c0-22.3,8.6-43.3,24.1-59.2l29.4-30.1
	c3.2-3.3,8-4.4,12.3-2.9s7.4,5.2,8,9.7l13.3,101.5c0,0.1,0.1,0.2,0.1,0.3c1.5,5-0.5,10.5-4.9,13.4l-63.8,41.6
	C122.7,447.6,120.5,448.2,118.2,448.2z M159.7,317l-12.3,12.6C136.3,341,130,356.1,130,372.2v42.2l39.1-25.4L159.7,317z"/>
<path class="st0" d="M378.7,318.6l-29.1-29.7l-13.4,102.4H336l63.1,41.1v-63.4C399.2,350.1,391.9,332.1,378.7,318.6z"/>
<path class="st2" d="M398,448.2c-2.3,0-4.5-0.7-6.5-1.9l-63.8-41.6c-4.4-2.9-6.4-8.3-4.9-13.4c0.1-0.2,0.1-0.3,0.2-0.4l13.2-101.2
	c0.6-4.5,3.7-8.3,8-9.7c4.3-1.4,9.1-0.3,12.3,2.9l29.4,30.1c15.5,16,24.1,37,24.1,59.2v64.2c0,4.4-2.4,8.4-6.2,10.4
	C402,447.7,400,448.2,398,448.2z M347.2,389l39,25.4v-42.2c0-16-6.1-31.2-17.4-42.6l-12.3-12.5L347.2,389z"/>
<polygon class="st0" points="260.9,443.1 227.8,391.3 260.9,339.5 293.9,391.3 "/>
<path class="st2" d="M258.1,459c-4,0-7.8-2.1-10-5.5l-33.4-52.4c-2.5-3.9-2.5-8.9,0-12.8l33.4-52.4c2.2-3.4,6-5.5,10-5.5
	s7.8,2.1,10,5.5l33.4,52.4c2.5,3.9,2.5,8.9,0,12.8l-33.4,52.4C265.9,456.9,262.1,459,258.1,459z M238.8,394.7l19.3,30.3l19.3-30.3
	l-19.3-30.3L238.8,394.7z"/>
</svg>
