<?xml version="1.0" encoding="utf-8"?>
<!-- Generator: Adobe Illustrator 19.2.1, SVG Export Plug-In . SVG Version: 6.00 Build 0)  -->
<svg version="1.1" id="Layer_1" xmlns="http://www.w3.org/2000/svg" xmlns:xlink="http://www.w3.org/1999/xlink" x="0px" y="0px"
	 viewBox="0 0 512 512" style="enable-background:new 0 0 512 512;" xml:space="preserve">
<style type="text/css">
	.st0{opacity:0.6;fill:#2B48FF;enable-background:new    ;}
	.st1{display:none;fill:#FFE32B;}
	.st2{fill:#2B48FF;}
</style>
<circle class="st0" cx="259.2" cy="239.3" r="46.6"/>
<circle class="st1" cx="258.2" cy="258.2" r="253.8"/>
<path class="st2" d="M353.4,449.9h-50.1c-4.2,0-7.8-6.3-7.8-14.1c0-7.9,3.5-14.1,7.8-14.1h50.1c4.2,0,7.8,6.3,7.8,14.1
	C361.2,443.6,357.6,449.9,353.4,449.9z"/>
<path class="st2" d="M164.9,449.9c-7,0-13.1-5.2-14.1-12.3L125.5,244c-12.4-81,18.7-162.8,81-213.2C229.6,12,248.2,1.6,249.1,1.3
	c4.3-2.3,9.4-2.3,13.7,0.1c0.8,0.5,20.8,11.7,45,31.8c60.6,50.4,90.6,131.4,78.5,211.2c-1.2,7.8-8.5,13-16.1,11.8
	c-7.6-1.2-13-8.5-11.8-16.1c10.9-70-15.5-141-68.5-185.1c-14-11.6-26.5-20-33.9-24.7c-6.9,4.3-18.5,12-31.6,22.5
	c-54.6,44.1-81.7,115.9-70.7,187c0,0.1,0,0.2,0,0.4L179,434.1c1,7.8-4.4,14.8-12.2,16C166.2,449.9,165.5,449.9,164.9,449.9z"/>
<g>
	<path class="st2" d="M255.9,302.6c-33.9,0-61.4-27.5-61.4-61.4s27.5-61.4,61.4-61.4s61.4,27.5,61.4,61.4S289.7,302.6,255.9,302.6z
		 M255.9,208.2c-18.2,0-33,14.8-33,33s14.8,33,33,33s33-14.8,33-33S274.1,208.2,255.9,208.2z"/>
	<path class="st2" d="M255.9,142.1h-99.1c-7.9,0-14.1-6.3-14.1-14.1c0-7.9,6.3-14.2,14.1-14.2h99.1c7.9,0,14.1,6.3,14.1,14.1
		C270.1,135.7,263.8,142.1,255.9,142.1z"/>
	<path class="st2" d="M353.8,142.1h-43.4c-7.9,0-14.1-6.3-14.1-14.1c0-7.9,6.3-14.1,14.1-14.1h43.4c7.9,0,14.1,6.3,14.1,14.1
		S361.7,142.1,353.8,142.1z"/>
</g>
<path class="st0" d="M169.2,431.7l-16-122.1L118.5,345C102.9,361.1,94,382.5,94,405v75.6l75.3-49h-0.1V431.7z"/>
<path class="st2" d="M89,499.5c-2.3,0-4.7-0.6-6.7-1.7c-4.7-2.5-7.4-7.2-7.4-12.4v-76.6c0-26.6,10.3-51.6,28.7-70.6l35.1-35.9
	c3.8-3.9,9.5-5.2,14.7-3.5c5.1,1.8,8.8,6.2,9.5,11.6l15.9,121c0,0.1,0.1,0.2,0.1,0.4c1.8,6-0.6,12.5-5.8,16L97,497.5
	C94.4,498.8,91.8,499.5,89,499.5z M138.5,343.1l-14.7,15c-13.2,13.6-20.8,31.6-20.8,50.8v50.3l46.6-30.3L138.5,343.1z"/>
<path class="st0" d="M399.7,345L365,309.6l-16,122.1h-0.2l75.3,49v-75.6C424.2,382.5,415.4,361.1,399.7,345z"/>
<path class="st2" d="M422.7,499.5c-2.7,0-5.4-0.8-7.8-2.3l-76.1-49.6c-5.2-3.5-7.6-9.9-5.8-16c0.1-0.2,0.1-0.4,0.2-0.5L349,310.5
	c0.7-5.4,4.4-9.9,9.5-11.6c5.1-1.7,10.9-0.4,14.7,3.5l35.1,35.9c18.5,19.1,28.7,44.1,28.7,70.6v76.6c0,5.2-2.9,10-7.4,12.4
	C427.5,498.9,425.1,499.5,422.7,499.5z M362.1,428.9l46.5,30.3v-50.3c0-19.1-7.3-37.2-20.8-50.8l-14.7-14.9L362.1,428.9z"/>
<polygon class="st0" points="259.2,493.4 219.7,431.7 259.2,369.9 298.6,431.7 "/>
<path class="st2" d="M255.9,512.4c-4.8,0-9.3-2.5-11.9-6.6l-39.8-62.5c-3-4.7-3-10.6,0-15.3l39.8-62.5c2.6-4.1,7.2-6.6,11.9-6.6
	c4.8,0,9.3,2.5,11.9,6.6l39.8,62.5c3,4.7,3,10.6,0,15.3l-39.8,62.5C265.2,509.9,260.7,512.4,255.9,512.4z M232.9,435.7l23,36.1
	l23-36.1l-23-36.1L232.9,435.7z"/>
</svg>
