<?xml version="1.0" encoding="utf-8"?>
<!-- Generator: Adobe Illustrator 19.2.1, SVG Export Plug-In . SVG Version: 6.00 Build 0)  -->
<svg version="1.1" id="Layer_1" xmlns="http://www.w3.org/2000/svg" xmlns:xlink="http://www.w3.org/1999/xlink" x="0px" y="0px"
	 viewBox="0 0 512 512" style="enable-background:new 0 0 512 512;" xml:space="preserve">
<style type="text/css">
	.st0{fill:#2B48FF;}
	.st1{opacity:0.6;fill:#2B48FF;}
</style>
<path class="st0" d="M353.4,449.6h-50c-4.2,0-7.7-6.3-7.7-14.1s3.4-14.1,7.7-14.1h50c4.2,0,7.7,6.3,7.7,14.1
	S357.6,449.6,353.4,449.6z"/>
<path class="st0" d="M165.1,449.6c-7,0-13.1-5.2-14-12.3l-25.2-193.4c-12.4-80.8,18.6-162.4,80.8-212.8c23.1-18.7,41.7-29,42.5-29.4
	c4.3-2.3,9.4-2.3,13.7,0.1c0.8,0.5,20.7,11.7,44.9,31.8c60.5,50.4,90.5,131.2,78.3,210.9c-1.2,7.7-8.4,13-16.1,11.8
	c-7.7-1.2-13-8.4-11.8-16.1c10.8-69.9-15.5-140.7-68.4-184.8c-13.9-11.6-26.4-20-33.8-24.7c-6.9,4.3-18.5,12-31.5,22.5
	c-54.5,44.1-81.6,115.7-70.6,186.7c0,0.1,0,0.2,0,0.3l25.3,193.5c1,7.7-4.4,14.8-12.2,15.9C166.4,449.6,165.7,449.6,165.1,449.6z"/>
<g>
	<path class="st0" d="M256,302.6c-33.8,0-61.3-27.5-61.3-61.3S222.2,180,256,180s61.3,27.5,61.3,61.3S289.8,302.6,256,302.6z
		 M256,208.3c-18.2,0-33,14.8-33,33c0,18.2,14.8,33,33,33s33-14.8,33-33S274.2,208.3,256,208.3z"/>
	<path class="st0" d="M256,142.3h-99c-7.8,0-14.1-6.3-14.1-14.1S149.2,114,157,114h99c7.8,0,14.1,6.3,14.1,14.1
		S263.8,142.3,256,142.3z"/>
	<path class="st0" d="M353.8,142.3h-43.3c-7.8,0-14.1-6.3-14.1-14.1s6.3-14.1,14.1-14.1h43.3c7.8,0,14.1,6.3,14.1,14.1
		S361.6,142.3,353.8,142.3z"/>
</g>
<path class="st1" d="M165.1,435.5l-16.1-123.3l-35,35.8c-15.8,16.2-24.7,37.9-24.7,60.6V485l76-49.5L165.1,435.5L165.1,435.5z"/>
<path class="st0" d="M89.4,499.1c-2.3,0-4.6-0.6-6.7-1.7c-4.6-2.5-7.4-7.2-7.4-12.4v-76.4c0-26.5,10.2-51.5,28.7-70.5l35-35.8
	c3.8-3.9,9.5-5.2,14.6-3.5c5.1,1.7,8.8,6.2,9.5,11.6l15.8,120.8c0,0.1,0.1,0.2,0.1,0.3c1.8,6-0.6,12.5-5.8,15.9l-76,49.5
	C94.8,498.4,92.1,499.1,89.4,499.1z M138.8,342.9l-14.6,15c-13.3,13.6-20.7,31.6-20.7,50.7v50.3l46.5-30.3L138.8,342.9z"/>
<path class="st1" d="M397.9,348l-35-35.8l-16.1,123.3h-0.3l76,49.5v-76.4C422.6,385.9,413.8,364.2,397.9,348z"/>
<path class="st0" d="M422.6,499.1c-2.7,0-5.4-0.8-7.7-2.3l-76-49.5c-5.2-3.4-7.6-9.9-5.8-15.9c0.1-0.2,0.1-0.3,0.2-0.5L349,310.4
	c0.7-5.4,4.4-9.9,9.5-11.6c5.1-1.7,10.8-0.3,14.6,3.5l35,35.8c18.5,19,28.7,44,28.7,70.5V485c0,5.2-2.8,10-7.4,12.4
	C427.3,498.6,424.9,499.1,422.6,499.1z M362.1,428.7l46.4,30.2v-50.3c0-19.1-7.3-37.1-20.7-50.7L373.2,343L362.1,428.7z"/>
<polygon class="st1" points="256,497.9 216.2,435.5 256,373.1 295.8,435.5 "/>
<path class="st0" d="M256,512c-4.8,0-9.3-2.5-11.9-6.5l-39.8-62.4c-3-4.6-3-10.6,0-15.2l39.8-62.4c2.6-4.1,7.1-6.5,11.9-6.5
	c4.8,0,9.3,2.5,11.9,6.5l39.8,62.4c3,4.6,3,10.6,0,15.2l-39.8,62.4C265.3,509.5,260.8,512,256,512z M233,435.5l23,36.1l23-36.1
	l-23-36.1L233,435.5z"/>
<circle class="st1" cx="256" cy="241.3" r="47.1"/>
</svg>
