<?xml version="1.0" encoding="utf-8"?>
<!-- Generator: Adobe Illustrator 19.2.1, SVG Export Plug-In . SVG Version: 6.00 Build 0)  -->
<svg version="1.1" id="Layer_1" xmlns="http://www.w3.org/2000/svg" xmlns:xlink="http://www.w3.org/1999/xlink" x="0px" y="0px"
	 viewBox="0 0 512 512" style="enable-background:new 0 0 512 512;" xml:space="preserve">
<style type="text/css">
	.st0{display:none;fill:#FFE32B;}
	.st1{fill:#2B48FF;}
	.st2{opacity:0.6;fill:#2B48FF;}
</style>
<circle class="st0" cx="256" cy="256" r="256"/>
<path class="st1" d="M190.9,456h-44.7c-5.8,0-10.8-4.2-11.7-10l-2.8-17.8c-10-3.9-19.3-9.3-27.7-16l-16.9,6.5
	c-5.4,2.1-11.6-0.1-14.5-5.1l-22.3-38.8c-2.9-5-1.7-11.4,2.8-15.1l14-11.4c-0.8-5.3-1.2-10.6-1.2-15.9s0.4-10.7,1.2-15.9l-14-11.3
	c-4.5-3.6-5.7-10-2.8-15.1l22.3-38.7c2.9-5,9.1-7.2,14.5-5.1l16.9,6.5c8.3-6.7,17.6-12.1,27.6-15.9l2.8-17.8c0.9-5.7,5.9-10,11.7-10
	h44.7c5.8,0,10.8,4.2,11.7,10l4,24.9c1.1,6.5-3.4,12.5-9.8,13.6c-6.5,1.1-12.5-3.4-13.6-9.8l-2.3-14.9h-24.5l-2.3,14.9
	c-0.7,4.5-3.9,8.2-8.3,9.5c-11.5,3.5-22.3,9.7-31.1,18c-3.3,3.1-8.1,4-12.3,2.4L88.2,272L76,293.2l11.7,9.3c3.5,2.8,5.1,7.4,4,11.9
	c-1.4,5.9-2,11.9-2,18s0.7,12.1,2,18c1.1,4.4-0.6,9-4,11.9L76,371.8L88.1,393l14.1-5.3c4.2-1.6,9-0.6,12.3,2.4
	c8.8,8.3,19.6,14.5,31.1,18c4.4,1.3,7.5,5,8.3,9.5l2.3,14.9h24.5l2.3-14.9c0.7-4.5,3.9-8.2,8.3-9.5c11.5-3.5,22.3-9.7,31.1-18
	c3.3-3.1,8.1-4,12.3-2.4l14.1,5.3l12.2-21.2l-11.5-9.5c-3.5-2.8-5.1-7.4-4-11.9c1.4-5.8,2-11.9,2-18s-0.7-12.1-2-18
	c-1.5-6.4,2.5-12.7,8.8-14.2c6.4-1.5,12.7,2.5,14.2,8.8c1.8,7.6,2.7,15.5,2.7,23.3c0,5.3-0.4,10.7-1.2,15.9l14,11.4
	c4.5,3.6,5.7,10,2.8,15.1l-22.3,38.7c-2.9,5-9.1,7.2-14.5,5.1l-16.9-6.5c-8.3,6.7-17.6,12.1-27.6,15.9l-2.8,17.8
	C201.7,451.8,196.7,456,190.9,456z"/>
<circle class="st2" cx="168.6" cy="332.5" r="43.2"/>
<path class="st1" d="M168.6,379.2c-25.8,0-46.8-21-46.8-46.8s21-46.8,46.8-46.8s46.8,21,46.8,46.8
	C215.4,358.3,194.3,379.2,168.6,379.2z M168.6,309.3c-12.7,0-23.1,10.4-23.1,23.1s10.4,23.1,23.1,23.1c12.7,0,23.1-10.4,23.1-23.1
	C191.6,319.6,181.3,309.3,168.6,309.3z"/>
<path class="st2" d="M431,179.5c0-6.9-0.8-13.5-2.3-19.9l18.8-15.3L426,107l-22.7,8.7c-9.7-9.1-21.5-16-34.5-19.9l-3.8-24h-43.1
	l-3.8,24c-13,4-24.8,10.9-34.5,19.9l-22.6-8.7l-21.6,37.3l18.8,15.3c-1.5,6.4-2.3,13-2.3,19.9c0,6.9,0.8,13.5,2.3,19.9l-18.8,15.3
	l21.6,37.3l22.6-8.7c9.7,9.1,21.5,16,34.5,19.9l3.8,24h43.1l3.8-24c13-4,24.8-10.9,34.5-19.9l22.7,8.7l21.6-37.3l-18.8-15.3
	C430.2,193.1,431,186.4,431,179.5z M343.4,213.3c-18.6,0-33.7-15.1-33.7-33.7s15.1-33.7,33.7-33.7c18.7,0,33.7,15.1,33.7,33.7
	S362,213.3,343.4,213.3z"/>
<path class="st1" d="M365.8,303.2h-44.7c-5.8,0-10.8-4.2-11.7-10l-2.8-17.8c-10-3.8-19.3-9.2-27.6-15.9l-16.9,6.5
	c-5.4,2.1-11.6-0.1-14.5-5.1l-22.3-38.8c-2.9-5-1.7-11.4,2.8-15.1l14-11.4c-0.8-5.3-1.2-10.6-1.2-15.9c0-5.3,0.4-10.7,1.2-15.9
	l-14-11.4c-4.5-3.6-5.7-10-2.8-15.1l22.3-38.7c2.9-5,9.1-7.2,14.5-5.1L279,100c8.3-6.7,17.6-12.1,27.6-15.9l2.8-17.8
	c0.9-5.7,5.9-10,11.7-10h44.7c5.8,0,10.8,4.2,11.7,10l2.8,17.8c10,3.8,19.3,9.2,27.6,15.9l16.9-6.5c5.4-2.1,11.6,0.1,14.5,5.1
	l22.3,38.7c2.9,5,1.7,11.4-2.8,15.1l-14,11.4c0.8,5.3,1.2,10.6,1.2,15.9c0,5.3-0.4,10.7-1.2,15.9l14,11.4c4.5,3.6,5.7,10,2.8,15.1
	l-22.3,38.7c-2.9,5-9.1,7.2-14.5,5.1l-16.9-6.5c-8.3,6.7-17.6,12.1-27.6,15.9l-2.8,17.8C376.5,299,371.6,303.2,365.8,303.2z
	 M331.2,279.5h24.5l2.3-14.9c0.7-4.5,3.9-8.2,8.3-9.5c11.5-3.5,22.3-9.7,31.1-18c3.3-3.1,8.1-4,12.3-2.4l14.1,5.3l12.2-21.2
	l-11.7-9.4c-3.5-2.8-5.1-7.4-4-11.9c1.4-5.8,2-11.9,2-18s-0.7-12.1-2-18c-1.1-4.4,0.6-9,4-11.9l11.7-9.5L423.8,119l-14.1,5.4
	c-4.2,1.6-9,0.6-12.3-2.4c-8.8-8.3-19.6-14.5-31.1-18c-4.4-1.3-7.5-5-8.3-9.5l-2.3-14.9h-24.5l-2.3,14.9c-0.7,4.5-3.9,8.2-8.3,9.5
	c-11.5,3.5-22.3,9.7-31.1,18c-3.3,3.1-8.1,4-12.3,2.4l-14.1-5.4l-12.3,21.2l11.7,9.5c3.5,2.8,5.1,7.4,4,11.9c-1.4,5.9-2,11.9-2,18
	s0.7,12.1,2,18c1.1,4.4-0.6,9-4,11.9l-11.7,9.5l12.2,21.2l14.1-5.3c4.2-1.6,9-0.6,12.3,2.4c8.8,8.3,19.6,14.5,31.1,18
	c4.4,1.3,7.5,5,8.3,9.5L331.2,279.5z M343.4,226.4c-25.8,0-46.8-21-46.8-46.8s21-46.8,46.8-46.8s46.8,21,46.8,46.8
	S369.3,226.4,343.4,226.4z M343.4,156.5c-12.7,0-23.1,10.4-23.1,23.1s10.4,23.1,23.1,23.1s23.1-10.4,23.1-23.1
	S356.2,156.5,343.4,156.5z"/>
</svg>
