<?xml version="1.0" encoding="utf-8"?>
<!-- Generator: Adobe Illustrator 19.2.1, SVG Export Plug-In . SVG Version: 6.00 Build 0)  -->
<svg version="1.1" id="Layer_1" xmlns="http://www.w3.org/2000/svg" xmlns:xlink="http://www.w3.org/1999/xlink" x="0px" y="0px"
	 viewBox="0 0 512 512" style="enable-background:new 0 0 512 512;" xml:space="preserve">
<style type="text/css">
	.st0{display:none;fill:#FFE32B;}
	.st1{fill:#2B48FF;}
	.st2{opacity:0.6;fill:#2B48FF;enable-background:new    ;}
</style>
<circle class="st0" cx="256" cy="256" r="256"/>
<path class="st1" d="M176.1,501.6h-54.9c-7.1,0-13.3-5.2-14.4-12.3l-3.4-21.9c-12.3-4.8-23.7-11.4-34-19.7l-20.8,8
	c-6.6,2.6-14.3-0.1-17.8-6.3L3.3,401.8c-3.6-6.1-2.1-14,3.4-18.6l17.2-14c-1-6.5-1.5-13-1.5-19.5c0-6.5,0.5-13.1,1.5-19.5L6.7,316.3
	c-5.5-4.4-7-12.3-3.4-18.6l27.4-47.6c3.6-6.1,11.2-8.8,17.8-6.3l20.8,8c10.2-8.2,21.6-14.9,33.9-19.5l3.4-21.9
	c1.1-7,7.2-12.3,14.4-12.3h54.9c7.1,0,13.3,5.2,14.4,12.3l4.9,30.6c1.4,8-4.2,15.4-12,16.7c-8,1.4-15.4-4.2-16.7-12l-2.8-18.3h-30.1
	l-2.8,18.3c-0.9,5.5-4.8,10.1-10.2,11.7c-14.1,4.3-27.4,11.9-38.2,22.1c-4.1,3.8-10,4.9-15.1,2.9l-17.3-7l-15,26.1L49.3,313
	c4.3,3.4,6.3,9.1,4.9,14.6c-1.7,7.2-2.5,14.6-2.5,22.1c0,7.5,0.9,14.9,2.5,22.1c1.4,5.4-0.7,11.1-4.9,14.6l-14.4,11.7l14.9,26.1
	l17.3-6.5c5.2-2,11.1-0.7,15.1,2.9c10.8,10.2,24.1,17.8,38.2,22.1c5.4,1.6,9.2,6.1,10.2,11.7l2.8,18.3h30.1l2.8-18.3
	c0.9-5.5,4.8-10.1,10.2-11.7c14.1-4.3,27.4-11.9,38.2-22.1c4.1-3.8,10-4.9,15.1-2.9l17.3,6.5l15-26.1l-14.1-11.7
	c-4.3-3.4-6.3-9.1-4.9-14.6c1.7-7.1,2.5-14.6,2.5-22.1c0-7.5-0.9-14.9-2.5-22.1c-1.8-7.9,3.1-15.6,10.8-17.4
	c7.9-1.8,15.6,3.1,17.4,10.8c2.2,9.3,3.3,19,3.3,28.6c0,6.5-0.5,13.1-1.5,19.5l17.2,14c5.5,4.4,7,12.3,3.4,18.6l-27.4,47.6
	c-3.6,6.1-11.2,8.8-17.8,6.3l-20.8-8c-10.2,8.2-21.6,14.9-33.9,19.5l-3.4,21.9C189.3,496.4,183.2,501.6,176.1,501.6z"/>
<circle class="st2" cx="148.7" cy="349.8" r="53.1"/>
<path class="st1" d="M148.7,407.2c-31.7,0-57.5-25.8-57.5-57.5s25.8-57.5,57.5-57.5s57.5,25.8,57.5,57.5
	C206.2,381.5,180.2,407.2,148.7,407.2z M148.7,321.3c-15.6,0-28.4,12.8-28.4,28.4c0,15.6,12.8,28.4,28.4,28.4s28.4-12.8,28.4-28.4
	C176.9,334,164.3,321.3,148.7,321.3z"/>
<path class="st2" d="M471.1,161.8c0-8.5-1-16.6-2.8-24.5l23.1-18.8L465,72.7l-27.9,10.7c-11.9-11.2-26.4-19.7-42.4-24.5L390,29.5
	h-53L332.4,59c-16,4.9-30.5,13.4-42.4,24.5l-27.8-10.7l-26.5,45.8l23.1,18.8c-1.8,7.9-2.8,16-2.8,24.5c0,8.5,1,16.6,2.8,24.5
	l-23.1,18.8l26.5,45.8l27.8-10.7c11.9,11.2,26.4,19.7,42.4,24.5l4.7,29.5h53l4.7-29.5c16-4.9,30.5-13.4,42.4-24.5l27.9,10.7
	l26.5-45.8l-23.1-18.8C470.1,178.5,471.1,170.3,471.1,161.8z M363.5,203.3c-22.9,0-41.4-18.6-41.4-41.4s18.6-41.4,41.4-41.4
	c23,0,41.4,18.6,41.4,41.4S386.3,203.3,363.5,203.3z"/>
<path class="st1" d="M391,313.8h-54.9c-7.1,0-13.3-5.2-14.4-12.3l-3.4-21.9c-12.3-4.7-23.7-11.3-33.9-19.5l-20.8,8
	c-6.6,2.6-14.3-0.1-17.8-6.3l-27.4-47.7c-3.6-6.1-2.1-14,3.4-18.6l17.2-14c-1-6.5-1.5-13-1.5-19.5c0-6.5,0.5-13.1,1.5-19.5l-17.2-14
	c-5.5-4.4-7-12.3-3.4-18.6l27.4-47.6c3.6-6.1,11.2-8.8,17.8-6.3l20.8,8c10.2-8.2,21.6-14.9,33.9-19.5l3.4-21.9
	c1.1-7,7.2-12.3,14.4-12.3H391c7.1,0,13.3,5.2,14.4,12.3l3.4,21.9c12.3,4.7,23.7,11.3,33.9,19.5l20.8-8c6.6-2.6,14.3,0.1,17.8,6.3
	l27.4,47.6c3.6,6.1,2.1,14-3.4,18.6l-17.2,14c1,6.5,1.5,13,1.5,19.5c0,6.5-0.5,13.1-1.5,19.5l17.2,14c5.5,4.4,7,12.3,3.4,18.6
	l-27.4,47.6c-3.6,6.1-11.2,8.8-17.8,6.3l-20.8-8c-10.2,8.2-21.6,14.9-33.9,19.5l-3.4,21.9C404.1,308.7,398.1,313.8,391,313.8z
	 M348.5,284.7h30.1l2.8-18.3c0.9-5.5,4.8-10.1,10.2-11.7c14.1-4.3,27.4-11.9,38.2-22.1c4.1-3.8,10-4.9,15.1-2.9l17.3,6.5l15-26.1
	l-14.4-11.6c-4.3-3.4-6.3-9.1-4.9-14.6c1.7-7.1,2.5-14.6,2.5-22.1s-0.9-14.9-2.5-22.1c-1.4-5.4,0.7-11.1,4.9-14.6l14.4-11.7
	l-15-25.9l-17.3,6.6c-5.2,2-11.1,0.7-15.1-2.9C419,81,405.7,73.3,391.6,69c-5.4-1.6-9.2-6.1-10.2-11.7l-2.8-18.3h-30.1l-2.8,18.3
	c-0.9,5.5-4.8,10.1-10.2,11.7C321.3,73.3,308,81,297.2,91.2c-4.1,3.8-10,4.9-15.1,2.9l-17.3-6.6l-15.1,26.1l14.4,11.7
	c4.3,3.4,6.3,9.1,4.9,14.6c-1.7,7.2-2.5,14.6-2.5,22.1s0.9,14.9,2.5,22.1c1.4,5.4-0.7,11.1-4.9,14.6l-14.4,11.7l15,26.1l17.3-6.5
	c5.2-2,11.1-0.7,15.1,2.9c10.8,10.2,24.1,17.8,38.2,22.1c5.4,1.6,9.2,6.1,10.2,11.7L348.5,284.7z M363.5,219.4
	c-31.7,0-57.5-25.8-57.5-57.5s25.8-57.5,57.5-57.5s57.5,25.8,57.5,57.5S395.3,219.4,363.5,219.4z M363.5,133.6
	c-15.6,0-28.4,12.8-28.4,28.4s12.8,28.4,28.4,28.4c15.6,0,28.4-12.8,28.4-28.4S379.2,133.6,363.5,133.6z"/>
</svg>
