<?xml version="1.0" encoding="utf-8"?>
<!-- Generator: Adobe Illustrator 19.2.1, SVG Export Plug-In . SVG Version: 6.00 Build 0)  -->
<svg version="1.1" id="Layer_1" xmlns="http://www.w3.org/2000/svg" xmlns:xlink="http://www.w3.org/1999/xlink" x="0px" y="0px"
	 viewBox="0 0 512 512" style="enable-background:new 0 0 512 512;" xml:space="preserve">
<style type="text/css">
	.st0{fill:#2B48FF;}
	.st1{opacity:0.6;fill:#2B48FF;}
</style>
<path class="st0" d="M175.6,503.1h-55.2c-7.2,0-13.3-5.2-14.4-12.3l-3.5-22C90.1,464,78.6,457.3,68.3,449l-20.9,8
	c-6.7,2.6-14.3-0.1-17.9-6.3L2,402.8c-3.6-6.2-2.1-14.1,3.4-18.7l17.3-14.1c-1-6.5-1.5-13.1-1.5-19.7s0.5-13.2,1.5-19.7L5.4,316.6
	c-5.6-4.5-7-12.4-3.4-18.7l27.6-47.8c3.6-6.2,11.2-8.9,17.9-6.3l20.9,8c10.3-8.3,21.8-15,34.1-19.7l3.5-22
	c1.1-7.1,7.3-12.3,14.4-12.3h55.2c7.2,0,13.3,5.2,14.4,12.3l4.9,30.7c1.3,8-4.2,15.5-12.1,16.8c-8,1.3-15.5-4.2-16.8-12.1l-2.9-18.4
	h-30.3l-2.9,18.4c-0.9,5.5-4.8,10.1-10.2,11.7c-14.2,4.3-27.5,12-38.4,22.2c-4.1,3.8-10,5-15.2,3l-17.4-6.6l-15.1,26.2L48,313.5
	c4.3,3.5,6.3,9.2,5,14.7c-1.7,7.3-2.5,14.7-2.5,22.2c0,7.5,0.9,15,2.5,22.2c1.3,5.4-0.7,11.1-5,14.7L33.5,399l15.1,26.2l17.4-6.6
	c5.2-2,11.1-0.8,15.2,3c10.9,10.2,24.2,17.9,38.4,22.2c5.4,1.6,9.3,6.2,10.2,11.7l2.9,18.4h30.3l2.9-18.4
	c0.9-5.5,4.8-10.1,10.2-11.7c14.2-4.3,27.5-12,38.4-22.2c4.1-3.8,10-5,15.2-3l17.4,6.6l15.1-26.2L248,387.3c-4.3-3.5-6.3-9.2-5-14.7
	c1.7-7.2,2.5-14.7,2.5-22.2c0-7.5-0.9-15-2.5-22.2c-1.8-7.9,3.1-15.7,10.9-17.6c7.9-1.8,15.7,3.1,17.6,10.9
	c2.2,9.4,3.3,19.1,3.3,28.8c0,6.6-0.5,13.2-1.5,19.7l17.3,14.1c5.6,4.5,7,12.4,3.4,18.7l-27.6,47.8c-3.6,6.2-11.2,8.9-17.9,6.3
	l-20.9-8c-10.3,8.3-21.8,15-34.1,19.7l-3.5,22C188.9,497.8,182.8,503.1,175.6,503.1z"/>
<circle class="st1" cx="148" cy="350.4" r="43.2"/>
<path class="st0" d="M148,408.2c-31.9,0-57.8-25.9-57.8-57.8s25.9-57.8,57.8-57.8s57.8,25.9,57.8,57.8S179.8,408.2,148,408.2z
	 M148,321.8c-15.7,0-28.5,12.8-28.5,28.5s12.8,28.5,28.5,28.5c15.7,0,28.5-12.8,28.5-28.5C176.5,334.6,163.7,321.8,148,321.8z"/>
<path class="st1" d="M476.2,161.6c0-8.8-1-17.3-2.9-25.5l24.1-19.6l-27.6-47.8l-29.1,11.1c-12.4-11.6-27.5-20.5-44.2-25.5l-4.9-30.7
	h-55.2l-4.9,30.7c-16.7,5.1-31.8,13.9-44.2,25.5l-29-11.1l-27.6,47.8l24.1,19.6c-1.9,8.2-2.9,16.7-2.9,25.5c0,8.8,1,17.3,2.9,25.5
	l-24.1,19.6l27.6,47.8l29-11.1c12.4,11.6,27.5,20.5,44.2,25.5l4.9,30.7h55.2l4.9-30.7c16.7-5.1,31.8-13.9,44.2-25.5l29.1,11.1
	l27.6-47.8l-24.1-19.6C475.2,179,476.2,170.4,476.2,161.6z M364,204.8c-23.8,0-43.2-19.3-43.2-43.2s19.3-43.2,43.2-43.2
	s43.2,19.3,43.2,43.2S387.9,204.8,364,204.8z"/>
<path class="st0" d="M391.6,314.3h-55.2c-7.2,0-13.3-5.2-14.4-12.3l-3.5-22c-12.3-4.7-23.8-11.4-34.1-19.7l-20.9,8
	c-6.7,2.6-14.3-0.1-17.9-6.3L218,214.1c-3.6-6.2-2.1-14.1,3.4-18.7l17.3-14.1c-1-6.5-1.5-13.1-1.5-19.7s0.5-13.2,1.5-19.7
	l-17.3-14.1c-5.6-4.5-7-12.4-3.4-18.7l27.6-47.8c3.6-6.2,11.2-8.9,17.9-6.3l20.9,8c10.3-8.3,21.8-15,34.1-19.7l3.5-22
	c1.1-7.1,7.3-12.3,14.4-12.3h55.2c7.2,0,13.3,5.2,14.4,12.3l3.5,22c12.3,4.7,23.8,11.4,34.1,19.7l20.9-8c6.7-2.6,14.3,0.1,17.9,6.3
	l27.6,47.8c3.6,6.2,2.1,14.1-3.4,18.7l-17.3,14.1c1,6.5,1.5,13.1,1.5,19.7s-0.5,13.2-1.5,19.7l17.3,14.1c5.6,4.5,7,12.4,3.4,18.7
	l-27.6,47.8c-3.6,6.2-11.2,8.9-17.9,6.3l-20.9-8c-10.3,8.3-21.8,15-34.1,19.7l-3.5,22C404.9,309.1,398.8,314.3,391.6,314.3z
	 M348.9,285h30.3l2.9-18.4c0.9-5.5,4.8-10.1,10.2-11.7c14.2-4.3,27.5-12,38.4-22.2c4.1-3.8,10-5,15.2-3l17.4,6.6l15.1-26.2
	L464,198.5c-4.3-3.5-6.3-9.2-5-14.7c1.7-7.2,2.5-14.7,2.5-22.2c0-7.5-0.9-15-2.5-22.2c-1.3-5.4,0.7-11.1,5-14.7l14.4-11.7
	l-15.1-26.2l-17.4,6.7c-5.2,2-11.1,0.8-15.2-3c-10.9-10.2-24.2-17.9-38.4-22.2c-5.4-1.6-9.3-6.2-10.2-11.7l-2.9-18.4h-30.3
	l-2.9,18.4c-0.9,5.5-4.8,10.1-10.2,11.7c-14.2,4.3-27.5,12-38.4,22.2c-4.1,3.8-10,5-15.2,3l-17.4-6.7L249.6,113l14.4,11.7
	c4.3,3.5,6.3,9.2,5,14.7c-1.7,7.3-2.5,14.7-2.5,22.2c0,7.5,0.9,15,2.5,22.2c1.3,5.4-0.7,11.1-5,14.7l-14.4,11.7l15.1,26.2l17.4-6.6
	c5.2-2,11.1-0.8,15.2,3c10.9,10.2,24.2,17.9,38.4,22.2c5.4,1.6,9.3,6.2,10.2,11.7L348.9,285z M364,219.4
	c-31.9,0-57.8-25.9-57.8-57.8s25.9-57.8,57.8-57.8s57.8,25.9,57.8,57.8S395.9,219.4,364,219.4z M364,133.1
	c-15.7,0-28.5,12.8-28.5,28.5s12.8,28.5,28.5,28.5s28.5-12.8,28.5-28.5S379.8,133.1,364,133.1z"/>
</svg>
