<?xml version="1.0" encoding="utf-8"?>
<!-- Generator: Adobe Illustrator 19.2.1, SVG Export Plug-In . SVG Version: 6.00 Build 0)  -->
<svg version="1.1" id="Layer_1" xmlns="http://www.w3.org/2000/svg" xmlns:xlink="http://www.w3.org/1999/xlink" x="0px" y="0px"
	 viewBox="0 0 512 512" style="enable-background:new 0 0 512 512;" xml:space="preserve">
<style type="text/css">
	.st0{display:none;fill:#FFE32B;}
	.st1{fill:#FFE32B;}
	.st2{fill:#2B48FF;}
	.st3{fill:#2B48FF;stroke:#2B48FF;stroke-miterlimit:10;}
</style>
<polygon class="st0" points="345,323.9 467.4,299.4 454.6,232 345,207.6 271.5,262.7 "/>
<circle class="st1" cx="256" cy="256.9" r="256"/>
<path class="st2" d="M137,387c-5.8,0-10.4-4.7-10.4-10.4V267.1c0-5.8,4.7-10.4,10.4-10.4c5.8,0,10.4,4.7,10.4,10.4v109.5
	C147.4,382.4,142.7,387,137,387z"/>
<path class="st2" d="M375,193.5c-5.8,0-10.4-4.7-10.4-10.4V97.4c0-11.3-9.2-20.6-20.6-20.6H168c-11.4,0-20.6,9.3-20.6,20.6v9.7
	c0,5.8-4.7,10.4-10.4,10.4s-10.4-4.7-10.4-10.4v-9.7c0-22.8,18.6-41.4,41.4-41.4H344c22.8,0,41.4,18.6,41.4,41.4v85.7
	C385.4,188.9,380.8,193.5,375,193.5z"/>
<path class="st0" d="M103.7,405.8V459c0,21.9,17.8,39.7,39.7,39.7h225.2c21.9,0,39.7-17.8,39.7-39.7v-53.2H103.7"/>
<path class="st2" d="M344,456H168c-22.8,0-41.4-18.6-41.4-41.4V373c0-5.8,4.7-10.4,10.4-10.4h238c5.8,0,10.4,4.7,10.4,10.4v41.6
	C385.4,437.4,366.8,456,344,456z M147.4,383.4v31.2c0,11.3,9.2,20.6,20.6,20.6H344c11.3,0,20.6-9.2,20.6-20.6v-31.2H147.4z"/>
<path class="st2" d="M274.4,419.5h-35.9c-5.8,0-10.4-4.7-10.4-10.4s4.7-10.4,10.4-10.4h35.9c5.8,0,10.4,4.7,10.4,10.4
	S280.1,419.5,274.4,419.5z"/>
<path class="st2" d="M375,397.3c-5.8,0-10.4-4.7-10.4-10.4v-40.7c0-5.8,4.7-10.4,10.4-10.4c5.7,0,10.4,4.7,10.4,10.4v40.7
	C385.4,392.6,380.8,397.3,375,397.3z"/>
<path class="st3" d="M335.4,327c-4.1,0-8-1.3-11.3-3.8l-58.4-42.7c-4.9-3.6-7.9-9.5-7.9-15.5s3-12,7.9-15.5l58.4-42.7
	c3.4-2.4,7.3-3.8,11.3-3.8c10.6,0,19.3,8.7,19.3,19.3v1.3h46.5c17,0,30.7,13.8,30.7,30.7v21.6c0,17-13.8,30.7-30.7,30.7h-46.5v1.3
	C354.7,318.3,346.1,327,335.4,327z M279.6,264.9l54.4,39.8V296c0-5.8,4.7-10.4,10.4-10.4h56.9c5.5,0,9.9-4.5,9.9-9.9V254
	c0-5.5-4.5-9.9-9.9-9.9h-57c-5.8,0-10.4-4.7-10.4-10.4v-8.7L279.6,264.9z"/>
<path class="st2" d="M176.6,246.7L176.6,246.7c-10.6,0-19.3-8.7-19.3-19.3v-1.3h-46.6c-17,0-30.7-13.8-30.7-30.7v-21.6
	c0-17,13.8-30.7,30.7-30.7H137h20.3v-1.2c0-10.6,8.7-19.3,19.3-19.3c4.1,0,8,1.3,11.3,3.8l58.4,42.7c4.9,3.6,7.9,9.5,7.9,15.5
	c0,6.1-3,12-7.9,15.5l-58.4,42.7C184.6,245.5,180.7,246.7,176.6,246.7z M110.8,164c-5.5,0-9.9,4.5-9.9,9.9v21.6
	c0,5.5,4.5,9.9,9.9,9.9h57c5.8,0,10.4,4.7,10.4,10.4v8.7l54.4-39.8L178.1,145v8.7c0,5.8-4.7,10.4-10.4,10.4L110.8,164L110.8,164z"/>
</svg>
