<?xml version="1.0" encoding="utf-8"?>
<!-- Generator: Adobe Illustrator 19.2.1, SVG Export Plug-In . SVG Version: 6.00 Build 0)  -->
<svg version="1.1" id="Layer_1" xmlns="http://www.w3.org/2000/svg" xmlns:xlink="http://www.w3.org/1999/xlink" x="0px" y="0px"
	 viewBox="0 0 512 512" style="enable-background:new 0 0 512 512;" xml:space="preserve">
<style type="text/css">
	.st0{fill:#2B48FF;}
	.st1{opacity:0.6;fill:#2B48FF;}
	.st2{fill:#2B48FF;stroke:#2B48FF;stroke-miterlimit:10;}
</style>
<path class="st0" d="M103.7,423.7c-7.4,0-13.3-6-13.3-13.3V270.2c0-7.4,6-13.3,13.3-13.3c7.4,0,13.3,6,13.3,13.3v140.2
	C117,417.8,111,423.7,103.7,423.7z"/>
<path class="st0" d="M408.3,176c-7.4,0-13.3-6-13.3-13.3V53c0-14.5-11.8-26.4-26.4-26.4H143.4C128.8,26.6,117,38.5,117,53v12.4
	c0,7.4-6,13.3-13.3,13.3s-13.3-6-13.3-13.3V53c0-29.2,23.8-53,53-53h225.2c29.2,0,53,23.8,53,53v109.7
	C421.6,170.1,415.7,176,408.3,176z"/>
<path class="st1" d="M103.7,405.8V459c0,21.9,17.8,39.7,39.7,39.7h225.2c21.9,0,39.7-17.8,39.7-39.7v-53.2H103.7"/>
<path class="st0" d="M368.6,512H143.4c-29.2,0-53-23.8-53-53v-53.2c0-7.4,6-13.3,13.3-13.3h304.6c7.4,0,13.3,6,13.3,13.3V459
	C421.6,488.2,397.9,512,368.6,512z M117,419.1V459c0,14.5,11.8,26.4,26.4,26.4h225.2c14.5,0,26.4-11.8,26.4-26.4v-39.9H117z"/>
<path class="st0" d="M279.6,465.3h-45.9c-7.4,0-13.3-6-13.3-13.3s6-13.3,13.3-13.3h45.9c7.4,0,13.3,6,13.3,13.3
	S286.9,465.3,279.6,465.3z"/>
<path class="st0" d="M408.3,436.9c-7.4,0-13.3-6-13.3-13.3v-52.1c0-7.4,6-13.3,13.3-13.3s13.3,6,13.3,13.3v52.1
	C421.6,430.9,415.7,436.9,408.3,436.9z"/>
<path class="st2" d="M357.6,346.9c-5.2,0-10.3-1.7-14.5-4.8l-74.8-54.7c-6.3-4.6-10.1-12.1-10.1-19.9c0-7.8,3.8-15.3,10.1-19.9
	l74.8-54.7c4.3-3.1,9.3-4.8,14.5-4.8c13.6,0,24.7,11.1,24.7,24.7v1.6h59.5c21.7,0,39.3,17.6,39.3,39.3v27.7
	c0,21.7-17.6,39.3-39.3,39.3h-59.5v1.6C382.4,335.8,371.3,346.9,357.6,346.9z M286.2,267.4l69.6,50.9v-11.1c0-7.4,6-13.3,13.3-13.3
	h72.8c7,0,12.7-5.7,12.7-12.7v-27.7c0-7-5.7-12.7-12.7-12.7H369c-7.4,0-13.3-6-13.3-13.3v-11.1L286.2,267.4z"/>
<path class="st0" d="M154.4,244.1C154.4,244.1,154.4,244.1,154.4,244.1c-13.6,0-24.7-11.1-24.7-24.7v-1.6H70.1
	c-21.7,0-39.3-17.6-39.3-39.3v-27.7c0-21.7,17.6-39.3,39.3-39.3h33.6h26v-1.6c0-13.6,11.1-24.7,24.7-24.7c5.2,0,10.3,1.7,14.5,4.8
	l74.8,54.7c6.3,4.6,10.1,12.1,10.1,19.9s-3.8,15.3-10.1,19.9l-74.8,54.7C164.6,242.5,159.6,244.1,154.4,244.1z M70.1,138.2
	c-7,0-12.7,5.7-12.7,12.7v27.7c0,7,5.7,12.7,12.7,12.7H143c7.4,0,13.3,6,13.3,13.3v11.1l69.6-50.9l-69.6-50.9v11.1
	c0,7.4-6,13.3-13.3,13.3L70.1,138.2L70.1,138.2z"/>
<polygon class="st1" points="345,323.9 467.4,299.4 454.6,232 345,207.6 271.5,262.7 "/>
</svg>
