<?xml version="1.0" encoding="utf-8"?>
<!-- Generator: Adobe Illustrator 19.2.1, SVG Export Plug-In . SVG Version: 6.00 Build 0)  -->
<svg version="1.1" id="Layer_1" xmlns="http://www.w3.org/2000/svg" xmlns:xlink="http://www.w3.org/1999/xlink" x="0px" y="0px"
	 viewBox="0 0 512 512" style="enable-background:new 0 0 512 512;" xml:space="preserve">
<style type="text/css">
	.st0{opacity:0.6;fill:#2B48FF;enable-background:new    ;}
	.st1{display:none;fill:#FFE32B;}
	.st2{fill:#2B48FF;}
	.st3{fill:#2B48FF;stroke:#2B48FF;stroke-miterlimit:10;}
</style>
<polygon class="st0" points="369.5,342.6 375.9,307.4 453.9,297.2 463.9,233.4 370,223.2 369.5,194.3 275.8,264.5 "/>
<circle class="st1" cx="256" cy="256.9" r="256"/>
<path class="st2" d="M104.3,423c-7.4,0-13.3-6-13.3-13.3V270.2c0-7.4,6-13.3,13.3-13.3c7.4,0,13.3,6,13.3,13.3v139.6
	C117.6,417.2,111.6,423,104.3,423z"/>
<path class="st2" d="M407.8,176.3c-7.4,0-13.3-6-13.3-13.3V53.8c0-14.4-11.7-26.3-26.3-26.3H143.9c-14.5,0-26.3,11.9-26.3,26.3v12.4
	c0,7.4-6,13.3-13.3,13.3s-13.3-6-13.3-13.3V53.8C91.1,24.7,114.8,1,143.9,1h224.4C397.3,1,421,24.7,421,53.8v109.3
	C421,170.4,415.2,176.3,407.8,176.3z"/>
<path class="st0" d="M110.6,406.8v51c0,21,17.1,38.1,38.1,38.1h216c21,0,38.1-17.1,38.1-38.1v-51H110.6"/>
<path class="st2" d="M368.3,511H143.9c-29.1,0-52.8-23.7-52.8-52.8v-53c0-7.4,6-13.3,13.3-13.3h303.5c7.4,0,13.3,6,13.3,13.3v53
	C421,487.3,397.3,511,368.3,511z M117.6,418.4v39.8c0,14.4,11.7,26.3,26.3,26.3h224.4c14.4,0,26.3-11.7,26.3-26.3v-39.8H117.6z"/>
<path class="st2" d="M279.5,464.5h-45.8c-7.4,0-13.3-6-13.3-13.3c0-7.3,6-13.3,13.3-13.3h45.8c7.4,0,13.3,6,13.3,13.3
	C292.8,458.5,286.8,464.5,279.5,464.5z"/>
<path class="st2" d="M407.8,436.2c-7.4,0-13.3-6-13.3-13.3V371c0-7.4,6-13.3,13.3-13.3c7.3,0,13.3,6,13.3,13.3v51.9
	C421,430.2,415.2,436.2,407.8,436.2z"/>
<path class="st3" d="M357.3,346.5c-5.2,0-10.2-1.7-14.4-4.8l-74.5-54.4c-6.2-4.6-10.1-12.1-10.1-19.8s3.8-15.3,10.1-19.8l74.5-54.4
	c4.3-3.1,9.3-4.8,14.4-4.8c13.5,0,24.6,11.1,24.6,24.6v1.7h59.3c21.7,0,39.1,17.6,39.1,39.1v27.5c0,21.7-17.6,39.1-39.1,39.1h-59.3
	v1.7C381.9,335.4,370.9,346.5,357.3,346.5z M286.2,267.3l69.4,50.7V307c0-7.4,6-13.3,13.3-13.3h72.5c7,0,12.6-5.7,12.6-12.6v-27.7
	c0-7-5.7-12.6-12.6-12.6h-72.7c-7.4,0-13.3-6-13.3-13.3v-11.1L286.2,267.3z"/>
<path class="st2" d="M154.8,244.1L154.8,244.1c-13.5,0-24.6-11.1-24.6-24.6v-1.7H70.8c-21.7,0-39.1-17.6-39.1-39.1v-27.5
	c0-21.7,17.6-39.1,39.1-39.1h33.5h25.9v-1.5c0-13.5,11.1-24.6,24.6-24.6c5.2,0,10.2,1.7,14.4,4.8l74.5,54.4
	c6.2,4.6,10.1,12.1,10.1,19.8c0,7.8-3.8,15.3-10.1,19.8l-74.5,54.4C165,242.6,160.1,244.1,154.8,244.1z M70.9,138.7
	c-7,0-12.6,5.7-12.6,12.6v27.5c0,7,5.7,12.6,12.6,12.6h72.7c7.4,0,13.3,6,13.3,13.3v11.1l69.4-50.7l-69.5-50.6v11.1
	c0,7.4-6,13.3-13.3,13.3L70.9,138.7L70.9,138.7z"/>
</svg>
